<?xml version="1.0" standalone="no"?>
<svg xmlns="http://www.w3.org/2000/svg" width="300" height="300" xmlns:xlink="http://www.w3.org/1999/xlink" viewBox="0 0 300 300"><defs><clipPath id="clip-path-background-color-3"><rect x="0" y="0" width="300" height="300"/></clipPath><clipPath id="clip-path-dot-color-3"><rect x="100" y="12" width="11" height="11" transform="rotate(0,105.5,17.5)"/><rect x="111" y="12" width="11" height="11" transform="rotate(0,116.5,17.5)"/><rect x="133" y="12" width="11" height="11" transform="rotate(0,138.5,17.5)"/><rect x="144" y="12" width="11" height="11" transform="rotate(0,149.5,17.5)"/><rect x="166" y="12" width="11" height="11" transform="rotate(0,171.5,17.5)"/><rect x="177" y="12" width="11" height="11" transform="rotate(0,182.5,17.5)"/><rect x="188" y="12" width="11" height="11" transform="rotate(0,193.5,17.5)"/><rect x="100" y="23" width="11" height="11" transform="rotate(0,105.5,28.5)"/><rect x="111" y="23" width="11" height="11" transform="rotate(0,116.5,28.5)"/><rect x="144" y="23" width="11" height="11" transform="rotate(0,149.5,28.5)"/><rect x="155" y="23" width="11" height="11" transform="rotate(0,160.5,28.5)"/><rect x="166" y="23" width="11" height="11" transform="rotate(0,171.5,28.5)"/><rect x="188" y="23" width="11" height="11" transform="rotate(0,193.5,28.5)"/><rect x="111" y="34" width="11" height="11" transform="rotate(0,116.5,39.5)"/><rect x="122" y="34" width="11" height="11" transform="rotate(0,127.5,39.5)"/><rect x="144" y="34" width="11" height="11" transform="rotate(0,149.5,39.5)"/><rect x="155" y="34" width="11" height="11" transform="rotate(0,160.5,39.5)"/><rect x="177" y="34" width="11" height="11" transform="rotate(0,182.5,39.5)"/><rect x="188" y="34" width="11" height="11" transform="rotate(0,193.5,39.5)"/><rect x="144" y="45" width="11" height="11" transform="rotate(0,149.5,50.5)"/><rect x="177" y="45" width="11" height="11" transform="rotate(0,182.5,50.5)"/><rect x="188" y="45" width="11" height="11" transform="rotate(0,193.5,50.5)"/><rect x="111" y="56" width="11" height="11" transform="rotate(0,116.5,61.5)"/><rect x="144" y="56" width="11" height="11" transform="rotate(0,149.5,61.5)"/><rect x="188" y="56" width="11" height="11" transform="rotate(0,193.5,61.5)"/><rect x="111" y="67" width="11" height="11" transform="rotate(0,116.5,72.5)"/><rect x="188" y="67" width="11" height="11" transform="rotate(0,193.5,72.5)"/><rect x="100" y="78" width="11" height="11" transform="rotate(0,105.5,83.5)"/><rect x="122" y="78" width="11" height="11" transform="rotate(0,127.5,83.5)"/><rect x="144" y="78" width="11" height="11" transform="rotate(0,149.5,83.5)"/><rect x="166" y="78" width="11" height="11" transform="rotate(0,171.5,83.5)"/><rect x="188" y="78" width="11" height="11" transform="rotate(0,193.5,83.5)"/><rect x="122" y="89" width="11" height="11" transform="rotate(0,127.5,94.5)"/><rect x="144" y="89" width="11" height="11" transform="rotate(0,149.5,94.5)"/><rect x="166" y="89" width="11" height="11" transform="rotate(0,171.5,94.5)"/><rect x="177" y="89" width="11" height="11" transform="rotate(0,182.5,94.5)"/><rect x="188" y="89" width="11" height="11" transform="rotate(0,193.5,94.5)"/><rect x="23" y="100" width="11" height="11" transform="rotate(0,28.5,105.5)"/><rect x="78" y="100" width="11" height="11" transform="rotate(0,83.5,105.5)"/><rect x="89" y="100" width="11" height="11" transform="rotate(0,94.5,105.5)"/><rect x="100" y="100" width="11" height="11" transform="rotate(0,105.5,105.5)"/><rect x="111" y="100" width="11" height="11" transform="rotate(0,116.5,105.5)"/><rect x="122" y="100" width="11" height="11" transform="rotate(0,127.5,105.5)"/><rect x="133" y="100" width="11" height="11" transform="rotate(0,138.5,105.5)"/><rect x="144" y="100" width="11" height="11" transform="rotate(0,149.5,105.5)"/><rect x="199" y="100" width="11" height="11" transform="rotate(0,204.5,105.5)"/><rect x="265" y="100" width="11" height="11" transform="rotate(0,270.5,105.5)"/><rect x="276" y="100" width="11" height="11" transform="rotate(0,281.5,105.5)"/><rect x="23" y="111" width="11" height="11" transform="rotate(0,28.5,116.5)"/><rect x="67" y="111" width="11" height="11" transform="rotate(0,72.5,116.5)"/><rect x="89" y="111" width="11" height="11" transform="rotate(0,94.5,116.5)"/><rect x="122" y="111" width="11" height="11" transform="rotate(0,127.5,116.5)"/><rect x="133" y="111" width="11" height="11" transform="rotate(0,138.5,116.5)"/><rect x="144" y="111" width="11" height="11" transform="rotate(0,149.5,116.5)"/><rect x="155" y="111" width="11" height="11" transform="rotate(0,160.5,116.5)"/><rect x="177" y="111" width="11" height="11" transform="rotate(0,182.5,116.5)"/><rect x="199" y="111" width="11" height="11" transform="rotate(0,204.5,116.5)"/><rect x="221" y="111" width="11" height="11" transform="rotate(0,226.5,116.5)"/><rect x="232" y="111" width="11" height="11" transform="rotate(0,237.5,116.5)"/><rect x="243" y="111" width="11" height="11" transform="rotate(0,248.5,116.5)"/><rect x="254" y="111" width="11" height="11" transform="rotate(0,259.5,116.5)"/><rect x="265" y="111" width="11" height="11" transform="rotate(0,270.5,116.5)"/><rect x="12" y="122" width="11" height="11" transform="rotate(0,17.5,127.5)"/><rect x="45" y="122" width="11" height="11" transform="rotate(0,50.5,127.5)"/><rect x="56" y="122" width="11" height="11" transform="rotate(0,61.5,127.5)"/><rect x="67" y="122" width="11" height="11" transform="rotate(0,72.5,127.5)"/><rect x="78" y="122" width="11" height="11" transform="rotate(0,83.5,127.5)"/><rect x="100" y="122" width="11" height="11" transform="rotate(0,105.5,127.5)"/><rect x="133" y="122" width="11" height="11" transform="rotate(0,138.5,127.5)"/><rect x="155" y="122" width="11" height="11" transform="rotate(0,160.5,127.5)"/><rect x="166" y="122" width="11" height="11" transform="rotate(0,171.5,127.5)"/><rect x="177" y="122" width="11" height="11" transform="rotate(0,182.5,127.5)"/><rect x="188" y="122" width="11" height="11" transform="rotate(0,193.5,127.5)"/><rect x="210" y="122" width="11" height="11" transform="rotate(0,215.5,127.5)"/><rect x="221" y="122" width="11" height="11" transform="rotate(0,226.5,127.5)"/><rect x="243" y="122" width="11" height="11" transform="rotate(0,248.5,127.5)"/><rect x="265" y="122" width="11" height="11" transform="rotate(0,270.5,127.5)"/><rect x="276" y="122" width="11" height="11" transform="rotate(0,281.5,127.5)"/><rect x="34" y="133" width="11" height="11" transform="rotate(0,39.5,138.5)"/><rect x="45" y="133" width="11" height="11" transform="rotate(0,50.5,138.5)"/><rect x="89" y="133" width="11" height="11" transform="rotate(0,94.5,138.5)"/><rect x="133" y="133" width="11" height="11" transform="rotate(0,138.5,138.5)"/><rect x="155" y="133" width="11" height="11" transform="rotate(0,160.5,138.5)"/><rect x="177" y="133" width="11" height="11" transform="rotate(0,182.5,138.5)"/><rect x="243" y="133" width="11" height="11" transform="rotate(0,248.5,138.5)"/><rect x="276" y="133" width="11" height="11" transform="rotate(0,281.5,138.5)"/><rect x="34" y="144" width="11" height="11" transform="rotate(0,39.5,149.5)"/><rect x="67" y="144" width="11" height="11" transform="rotate(0,72.5,149.5)"/><rect x="78" y="144" width="11" height="11" transform="rotate(0,83.5,149.5)"/><rect x="89" y="144" width="11" height="11" transform="rotate(0,94.5,149.5)"/><rect x="111" y="144" width="11" height="11" transform="rotate(0,116.5,149.5)"/><rect x="155" y="144" width="11" height="11" transform="rotate(0,160.5,149.5)"/><rect x="177" y="144" width="11" height="11" transform="rotate(0,182.5,149.5)"/><rect x="188" y="144" width="11" height="11" transform="rotate(0,193.5,149.5)"/><rect x="210" y="144" width="11" height="11" transform="rotate(0,215.5,149.5)"/><rect x="276" y="144" width="11" height="11" transform="rotate(0,281.5,149.5)"/><rect x="12" y="155" width="11" height="11" transform="rotate(0,17.5,160.5)"/><rect x="23" y="155" width="11" height="11" transform="rotate(0,28.5,160.5)"/><rect x="34" y="155" width="11" height="11" transform="rotate(0,39.5,160.5)"/><rect x="45" y="155" width="11" height="11" transform="rotate(0,50.5,160.5)"/><rect x="89" y="155" width="11" height="11" transform="rotate(0,94.5,160.5)"/><rect x="100" y="155" width="11" height="11" transform="rotate(0,105.5,160.5)"/><rect x="122" y="155" width="11" height="11" transform="rotate(0,127.5,160.5)"/><rect x="144" y="155" width="11" height="11" transform="rotate(0,149.5,160.5)"/><rect x="177" y="155" width="11" height="11" transform="rotate(0,182.5,160.5)"/><rect x="188" y="155" width="11" height="11" transform="rotate(0,193.5,160.5)"/><rect x="221" y="155" width="11" height="11" transform="rotate(0,226.5,160.5)"/><rect x="265" y="155" width="11" height="11" transform="rotate(0,270.5,160.5)"/><rect x="12" y="166" width="11" height="11" transform="rotate(0,17.5,171.5)"/><rect x="45" y="166" width="11" height="11" transform="rotate(0,50.5,171.5)"/><rect x="67" y="166" width="11" height="11" transform="rotate(0,72.5,171.5)"/><rect x="78" y="166" width="11" height="11" transform="rotate(0,83.5,171.5)"/><rect x="89" y="166" width="11" height="11" transform="rotate(0,94.5,171.5)"/><rect x="100" y="166" width="11" height="11" transform="rotate(0,105.5,171.5)"/><rect x="122" y="166" width="11" height="11" transform="rotate(0,127.5,171.5)"/><rect x="155" y="166" width="11" height="11" transform="rotate(0,160.5,171.5)"/><rect x="177" y="166" width="11" height="11" transform="rotate(0,182.5,171.5)"/><rect x="199" y="166" width="11" height="11" transform="rotate(0,204.5,171.5)"/><rect x="221" y="166" width="11" height="11" transform="rotate(0,226.5,171.5)"/><rect x="232" y="166" width="11" height="11" transform="rotate(0,237.5,171.5)"/><rect x="243" y="166" width="11" height="11" transform="rotate(0,248.5,171.5)"/><rect x="265" y="166" width="11" height="11" transform="rotate(0,270.5,171.5)"/><rect x="276" y="166" width="11" height="11" transform="rotate(0,281.5,171.5)"/><rect x="12" y="177" width="11" height="11" transform="rotate(0,17.5,182.5)"/><rect x="45" y="177" width="11" height="11" transform="rotate(0,50.5,182.5)"/><rect x="100" y="177" width="11" height="11" transform="rotate(0,105.5,182.5)"/><rect x="111" y="177" width="11" height="11" transform="rotate(0,116.5,182.5)"/><rect x="133" y="177" width="11" height="11" transform="rotate(0,138.5,182.5)"/><rect x="177" y="177" width="11" height="11" transform="rotate(0,182.5,182.5)"/><rect x="199" y="177" width="11" height="11" transform="rotate(0,204.5,182.5)"/><rect x="221" y="177" width="11" height="11" transform="rotate(0,226.5,182.5)"/><rect x="243" y="177" width="11" height="11" transform="rotate(0,248.5,182.5)"/><rect x="254" y="177" width="11" height="11" transform="rotate(0,259.5,182.5)"/><rect x="276" y="177" width="11" height="11" transform="rotate(0,281.5,182.5)"/><rect x="12" y="188" width="11" height="11" transform="rotate(0,17.5,193.5)"/><rect x="34" y="188" width="11" height="11" transform="rotate(0,39.5,193.5)"/><rect x="67" y="188" width="11" height="11" transform="rotate(0,72.5,193.5)"/><rect x="78" y="188" width="11" height="11" transform="rotate(0,83.5,193.5)"/><rect x="122" y="188" width="11" height="11" transform="rotate(0,127.5,193.5)"/><rect x="133" y="188" width="11" height="11" transform="rotate(0,138.5,193.5)"/><rect x="144" y="188" width="11" height="11" transform="rotate(0,149.5,193.5)"/><rect x="155" y="188" width="11" height="11" transform="rotate(0,160.5,193.5)"/><rect x="166" y="188" width="11" height="11" transform="rotate(0,171.5,193.5)"/><rect x="188" y="188" width="11" height="11" transform="rotate(0,193.5,193.5)"/><rect x="199" y="188" width="11" height="11" transform="rotate(0,204.5,193.5)"/><rect x="210" y="188" width="11" height="11" transform="rotate(0,215.5,193.5)"/><rect x="221" y="188" width="11" height="11" transform="rotate(0,226.5,193.5)"/><rect x="232" y="188" width="11" height="11" transform="rotate(0,237.5,193.5)"/><rect x="254" y="188" width="11" height="11" transform="rotate(0,259.5,193.5)"/><rect x="100" y="199" width="11" height="11" transform="rotate(0,105.5,204.5)"/><rect x="122" y="199" width="11" height="11" transform="rotate(0,127.5,204.5)"/><rect x="133" y="199" width="11" height="11" transform="rotate(0,138.5,204.5)"/><rect x="188" y="199" width="11" height="11" transform="rotate(0,193.5,204.5)"/><rect x="232" y="199" width="11" height="11" transform="rotate(0,237.5,204.5)"/><rect x="100" y="210" width="11" height="11" transform="rotate(0,105.5,215.5)"/><rect x="111" y="210" width="11" height="11" transform="rotate(0,116.5,215.5)"/><rect x="122" y="210" width="11" height="11" transform="rotate(0,127.5,215.5)"/><rect x="133" y="210" width="11" height="11" transform="rotate(0,138.5,215.5)"/><rect x="144" y="210" width="11" height="11" transform="rotate(0,149.5,215.5)"/><rect x="166" y="210" width="11" height="11" transform="rotate(0,171.5,215.5)"/><rect x="188" y="210" width="11" height="11" transform="rotate(0,193.5,215.5)"/><rect x="210" y="210" width="11" height="11" transform="rotate(0,215.5,215.5)"/><rect x="232" y="210" width="11" height="11" transform="rotate(0,237.5,215.5)"/><rect x="276" y="210" width="11" height="11" transform="rotate(0,281.5,215.5)"/><rect x="133" y="221" width="11" height="11" transform="rotate(0,138.5,226.5)"/><rect x="155" y="221" width="11" height="11" transform="rotate(0,160.5,226.5)"/><rect x="188" y="221" width="11" height="11" transform="rotate(0,193.5,226.5)"/><rect x="232" y="221" width="11" height="11" transform="rotate(0,237.5,226.5)"/><rect x="265" y="221" width="11" height="11" transform="rotate(0,270.5,226.5)"/><rect x="276" y="221" width="11" height="11" transform="rotate(0,281.5,226.5)"/><rect x="111" y="232" width="11" height="11" transform="rotate(0,116.5,237.5)"/><rect x="144" y="232" width="11" height="11" transform="rotate(0,149.5,237.5)"/><rect x="177" y="232" width="11" height="11" transform="rotate(0,182.5,237.5)"/><rect x="188" y="232" width="11" height="11" transform="rotate(0,193.5,237.5)"/><rect x="199" y="232" width="11" height="11" transform="rotate(0,204.5,237.5)"/><rect x="210" y="232" width="11" height="11" transform="rotate(0,215.5,237.5)"/><rect x="221" y="232" width="11" height="11" transform="rotate(0,226.5,237.5)"/><rect x="232" y="232" width="11" height="11" transform="rotate(0,237.5,237.5)"/><rect x="254" y="232" width="11" height="11" transform="rotate(0,259.5,237.5)"/><rect x="276" y="232" width="11" height="11" transform="rotate(0,281.5,237.5)"/><rect x="111" y="243" width="11" height="11" transform="rotate(0,116.5,248.5)"/><rect x="133" y="243" width="11" height="11" transform="rotate(0,138.5,248.5)"/><rect x="199" y="243" width="11" height="11" transform="rotate(0,204.5,248.5)"/><rect x="210" y="243" width="11" height="11" transform="rotate(0,215.5,248.5)"/><rect x="265" y="243" width="11" height="11" transform="rotate(0,270.5,248.5)"/><rect x="276" y="243" width="11" height="11" transform="rotate(0,281.5,248.5)"/><rect x="111" y="254" width="11" height="11" transform="rotate(0,116.5,259.5)"/><rect x="122" y="254" width="11" height="11" transform="rotate(0,127.5,259.5)"/><rect x="155" y="254" width="11" height="11" transform="rotate(0,160.5,259.5)"/><rect x="166" y="254" width="11" height="11" transform="rotate(0,171.5,259.5)"/><rect x="177" y="254" width="11" height="11" transform="rotate(0,182.5,259.5)"/><rect x="243" y="254" width="11" height="11" transform="rotate(0,248.5,259.5)"/><rect x="254" y="254" width="11" height="11" transform="rotate(0,259.5,259.5)"/><rect x="276" y="254" width="11" height="11" transform="rotate(0,281.5,259.5)"/><rect x="100" y="265" width="11" height="11" transform="rotate(0,105.5,270.5)"/><rect x="122" y="265" width="11" height="11" transform="rotate(0,127.5,270.5)"/><rect x="177" y="265" width="11" height="11" transform="rotate(0,182.5,270.5)"/><rect x="188" y="265" width="11" height="11" transform="rotate(0,193.5,270.5)"/><rect x="210" y="265" width="11" height="11" transform="rotate(0,215.5,270.5)"/><rect x="221" y="265" width="11" height="11" transform="rotate(0,226.5,270.5)"/><rect x="232" y="265" width="11" height="11" transform="rotate(0,237.5,270.5)"/><rect x="276" y="265" width="11" height="11" transform="rotate(0,281.5,270.5)"/><rect x="111" y="276" width="11" height="11" transform="rotate(0,116.5,281.5)"/><rect x="144" y="276" width="11" height="11" transform="rotate(0,149.5,281.5)"/><rect x="155" y="276" width="11" height="11" transform="rotate(0,160.5,281.5)"/><rect x="166" y="276" width="11" height="11" transform="rotate(0,171.5,281.5)"/><rect x="188" y="276" width="11" height="11" transform="rotate(0,193.5,281.5)"/><rect x="210" y="276" width="11" height="11" transform="rotate(0,215.5,281.5)"/><rect x="243" y="276" width="11" height="11" transform="rotate(0,248.5,281.5)"/><rect x="276" y="276" width="11" height="11" transform="rotate(0,281.5,281.5)"/></clipPath><linearGradient id="dot-color-3" gradientUnits="userSpaceOnUse" x1="0" y1="150" x2="300" y2="150"><stop offset="0%" stop-color="#38761d"/><stop offset="100%" stop-color="#9900ff"/></linearGradient><clipPath id="clip-path-corners-square-color-0-0-3"><path clip-rule="evenodd" d="M 50.5 12a 38.5 38.5 0 1 0 0.1 0zm 0 11a 27.5 27.5 0 1 1 -0.1 0Z" transform="rotate(0,50.5,50.5)"/></clipPath><clipPath id="clip-path-corners-dot-color-0-0-3"><rect x="34" y="34" width="33" height="33" transform="rotate(0,50.5,50.5)"/></clipPath><clipPath id="clip-path-corners-square-color-1-0-3"><path clip-rule="evenodd" d="M 248.5 12a 38.5 38.5 0 1 0 0.1 0zm 0 11a 27.5 27.5 0 1 1 -0.1 0Z" transform="rotate(90,248.5,50.5)"/></clipPath><clipPath id="clip-path-corners-dot-color-1-0-3"><rect x="232" y="34" width="33" height="33" transform="rotate(90,248.5,50.5)"/></clipPath><clipPath id="clip-path-corners-square-color-0-1-3"><path clip-rule="evenodd" d="M 50.5 210a 38.5 38.5 0 1 0 0.1 0zm 0 11a 27.5 27.5 0 1 1 -0.1 0Z" transform="rotate(-90,50.5,248.5)"/></clipPath><clipPath id="clip-path-corners-dot-color-0-1-3"><rect x="34" y="232" width="33" height="33" transform="rotate(-90,50.5,248.5)"/></clipPath></defs><rect x="0" y="0" height="300" width="300" clip-path="url('#clip-path-background-color-3')" fill="#d9ead3"/><rect x="0" y="0" height="300" width="300" clip-path="url('#clip-path-dot-color-3')" fill="url('#dot-color-3')"/><rect x="12" y="12" height="77" width="77" clip-path="url('#clip-path-corners-square-color-0-0-3')" fill="#38761d"/><rect x="34" y="34" height="33" width="33" clip-path="url('#clip-path-corners-dot-color-0-0-3')" fill="#38761d"/><rect x="210" y="12" height="77" width="77" clip-path="url('#clip-path-corners-square-color-1-0-3')" fill="#38761d"/><rect x="232" y="34" height="33" width="33" clip-path="url('#clip-path-corners-dot-color-1-0-3')" fill="#38761d"/><rect x="12" y="210" height="77" width="77" clip-path="url('#clip-path-corners-square-color-0-1-3')" fill="#38761d"/><rect x="34" y="232" height="33" width="33" clip-path="url('#clip-path-corners-dot-color-0-1-3')" fill="#38761d"/></svg>