<?xml version="1.0" standalone="no"?>
<svg xmlns="http://www.w3.org/2000/svg" width="300" height="300" xmlns:xlink="http://www.w3.org/1999/xlink" viewBox="0 0 300 300"><defs><clipPath id="clip-path-background-color-3"><rect x="0" y="0" width="300" height="300"/></clipPath><clipPath id="clip-path-dot-color-3"><path d="M 100 12v 11h 11a 11 11, 0, 0, 0, -11 -11" transform="rotate(-90,105.5,17.5)"/><rect x="111" y="12" width="11" height="11" transform="rotate(0,116.5,17.5)"/><path d="M 133 12v 11h 11a 11 11, 0, 0, 0, -11 -11" transform="rotate(-90,138.5,17.5)"/><rect x="144" y="12" width="11" height="11" transform="rotate(0,149.5,17.5)"/><path d="M 166 12v 11h 11a 11 11, 0, 0, 0, -11 -11" transform="rotate(-90,171.5,17.5)"/><rect x="177" y="12" width="11" height="11" transform="rotate(0,182.5,17.5)"/><rect x="188" y="12" width="11" height="11" transform="rotate(0,193.5,17.5)"/><rect x="100" y="23" width="11" height="11" transform="rotate(0,105.5,28.5)"/><rect x="111" y="23" width="11" height="11" transform="rotate(0,116.5,28.5)"/><rect x="144" y="23" width="11" height="11" transform="rotate(0,149.5,28.5)"/><rect x="155" y="23" width="11" height="11" transform="rotate(0,160.5,28.5)"/><path d="M 166 23v 11h 11a 11 11, 0, 0, 0, -11 -11" transform="rotate(90,171.5,28.5)"/><rect x="188" y="23" width="11" height="11" transform="rotate(0,193.5,28.5)"/><rect x="111" y="34" width="11" height="11" transform="rotate(0,116.5,39.5)"/><path d="M 122 34v 11h 11a 11 11, 0, 0, 0, -11 -11" transform="rotate(90,127.5,39.5)"/><rect x="144" y="34" width="11" height="11" transform="rotate(0,149.5,39.5)"/><path d="M 155 34v 11h 11a 11 11, 0, 0, 0, -11 -11" transform="rotate(90,160.5,39.5)"/><path d="M 177 34v 11h 11a 11 11, 0, 0, 0, -11 -11" transform="rotate(-90,182.5,39.5)"/><rect x="188" y="34" width="11" height="11" transform="rotate(0,193.5,39.5)"/><rect x="144" y="45" width="11" height="11" transform="rotate(0,149.5,50.5)"/><rect x="177" y="45" width="11" height="11" transform="rotate(0,182.5,50.5)"/><rect x="188" y="45" width="11" height="11" transform="rotate(0,193.5,50.5)"/><path d="M 111 56v 11h 11a 11 11, 0, 0, 0, -11 -11" transform="rotate(-90,116.5,61.5)"/><path d="M 144 56v 11h 11a 11 11, 0, 0, 0, -11 -11" transform="rotate(90,149.5,61.5)"/><rect x="188" y="56" width="11" height="11" transform="rotate(0,193.5,61.5)"/><path d="M 111 67v 11h 11a 11 11, 0, 0, 0, -11 -11" transform="rotate(90,116.5,72.5)"/><rect x="188" y="67" width="11" height="11" transform="rotate(0,193.5,72.5)"/><path d="M 100 78v 5.5a 5.5 5.5, 0, 0, 0, 5.5 5.5h 5.5v -5.5a 5.5 5.5, 0, 0, 0, -5.5 -5.5" transform="rotate(90,105.5,83.5)"/><path d="M 122 78v 11h 11a 11 11, 0, 0, 0, -11 -11" transform="rotate(-90,127.5,83.5)"/><path d="M 144 78v 11h 11a 11 11, 0, 0, 0, -11 -11" transform="rotate(-90,149.5,83.5)"/><path d="M 166 78v 11h 11a 11 11, 0, 0, 0, -11 -11" transform="rotate(-90,171.5,83.5)"/><rect x="188" y="78" width="11" height="11" transform="rotate(0,193.5,83.5)"/><rect x="122" y="89" width="11" height="11" transform="rotate(0,127.5,94.5)"/><rect x="144" y="89" width="11" height="11" transform="rotate(0,149.5,94.5)"/><rect x="166" y="89" width="11" height="11" transform="rotate(0,171.5,94.5)"/><rect x="177" y="89" width="11" height="11" transform="rotate(0,182.5,94.5)"/><path d="M 188 89v 11h 11a 11 11, 0, 0, 0, -11 -11" transform="rotate(90,193.5,94.5)"/><path d="M 23 100v 11h 11a 11 11, 0, 0, 0, -11 -11" transform="rotate(-90,28.5,105.5)"/><path d="M 78 100v 11h 11a 11 11, 0, 0, 0, -11 -11" transform="rotate(-90,83.5,105.5)"/><rect x="89" y="100" width="11" height="11" transform="rotate(0,94.5,105.5)"/><rect x="100" y="100" width="11" height="11" transform="rotate(0,105.5,105.5)"/><rect x="111" y="100" width="11" height="11" transform="rotate(0,116.5,105.5)"/><rect x="122" y="100" width="11" height="11" transform="rotate(0,127.5,105.5)"/><rect x="133" y="100" width="11" height="11" transform="rotate(0,138.5,105.5)"/><rect x="144" y="100" width="11" height="11" transform="rotate(0,149.5,105.5)"/><path d="M 199 100v 11h 11a 11 11, 0, 0, 0, -11 -11" transform="rotate(-90,204.5,105.5)"/><path d="M 265 100v 11h 11a 11 11, 0, 0, 0, -11 -11" transform="rotate(-90,270.5,105.5)"/><path d="M 276 100v 11h 11a 11 11, 0, 0, 0, -11 -11" transform="rotate(90,281.5,105.5)"/><path d="M 23 111v 11h 11a 11 11, 0, 0, 0, -11 -11" transform="rotate(90,28.5,116.5)"/><path d="M 67 111v 11h 11a 11 11, 0, 0, 0, -11 -11" transform="rotate(-90,72.5,116.5)"/><path d="M 89 111v 11h 11a 11 11, 0, 0, 0, -11 -11" transform="rotate(90,94.5,116.5)"/><rect x="122" y="111" width="11" height="11" transform="rotate(0,127.5,116.5)"/><rect x="133" y="111" width="11" height="11" transform="rotate(0,138.5,116.5)"/><rect x="144" y="111" width="11" height="11" transform="rotate(0,149.5,116.5)"/><rect x="155" y="111" width="11" height="11" transform="rotate(0,160.5,116.5)"/><path d="M 177 111v 11h 11a 11 11, 0, 0, 0, -11 -11" transform="rotate(-90,182.5,116.5)"/><path d="M 199 111v 11h 11a 11 11, 0, 0, 0, -11 -11" transform="rotate(90,204.5,116.5)"/><path d="M 221 111v 11h 11a 11 11, 0, 0, 0, -11 -11" transform="rotate(-90,226.5,116.5)"/><rect x="232" y="111" width="11" height="11" transform="rotate(0,237.5,116.5)"/><rect x="243" y="111" width="11" height="11" transform="rotate(0,248.5,116.5)"/><rect x="254" y="111" width="11" height="11" transform="rotate(0,259.5,116.5)"/><rect x="265" y="111" width="11" height="11" transform="rotate(0,270.5,116.5)"/><path d="M 12 122v 5.5a 5.5 5.5, 0, 0, 0, 5.5 5.5h 5.5v -5.5a 5.5 5.5, 0, 0, 0, -5.5 -5.5" transform="rotate(90,17.5,127.5)"/><path d="M 45 122v 11h 11a 11 11, 0, 0, 0, -11 -11" transform="rotate(-90,50.5,127.5)"/><rect x="56" y="122" width="11" height="11" transform="rotate(0,61.5,127.5)"/><rect x="67" y="122" width="11" height="11" transform="rotate(0,72.5,127.5)"/><path d="M 78 122v 11h 11a 11 11, 0, 0, 0, -11 -11" transform="rotate(90,83.5,127.5)"/><path d="M 100 122v 5.5a 5.5 5.5, 0, 0, 0, 5.5 5.5h 5.5v -5.5a 5.5 5.5, 0, 0, 0, -5.5 -5.5" transform="rotate(90,105.5,127.5)"/><rect x="133" y="122" width="11" height="11" transform="rotate(0,138.5,127.5)"/><rect x="155" y="122" width="11" height="11" transform="rotate(0,160.5,127.5)"/><rect x="166" y="122" width="11" height="11" transform="rotate(0,171.5,127.5)"/><rect x="177" y="122" width="11" height="11" transform="rotate(0,182.5,127.5)"/><path d="M 188 122v 11h 11a 11 11, 0, 0, 0, -11 -11" transform="rotate(90,193.5,127.5)"/><path d="M 210 122v 11h 11a 11 11, 0, 0, 0, -11 -11" transform="rotate(-90,215.5,127.5)"/><path d="M 221 122v 11h 11a 11 11, 0, 0, 0, -11 -11" transform="rotate(90,226.5,127.5)"/><rect x="243" y="122" width="11" height="11" transform="rotate(0,248.5,127.5)"/><rect x="265" y="122" width="11" height="11" transform="rotate(0,270.5,127.5)"/><rect x="276" y="122" width="11" height="11" transform="rotate(0,281.5,127.5)"/><path d="M 34 133v 11h 11a 11 11, 0, 0, 0, -11 -11" transform="rotate(-90,39.5,138.5)"/><path d="M 45 133v 11h 11a 11 11, 0, 0, 0, -11 -11" transform="rotate(90,50.5,138.5)"/><path d="M 89 133v 11h 11a 11 11, 0, 0, 0, -11 -11" transform="rotate(-90,94.5,138.5)"/><path d="M 133 133v 11h 11a 11 11, 0, 0, 0, -11 -11" transform="rotate(90,138.5,138.5)"/><rect x="155" y="133" width="11" height="11" transform="rotate(0,160.5,138.5)"/><rect x="177" y="133" width="11" height="11" transform="rotate(0,182.5,138.5)"/><path d="M 243 133v 11h 11a 11 11, 0, 0, 0, -11 -11" transform="rotate(90,248.5,138.5)"/><rect x="276" y="133" width="11" height="11" transform="rotate(0,281.5,138.5)"/><rect x="34" y="144" width="11" height="11" transform="rotate(0,39.5,149.5)"/><path d="M 67 144v 11h 11a 11 11, 0, 0, 0, -11 -11" transform="rotate(-90,72.5,149.5)"/><rect x="78" y="144" width="11" height="11" transform="rotate(0,83.5,149.5)"/><rect x="89" y="144" width="11" height="11" transform="rotate(0,94.5,149.5)"/><path d="M 111 144v 5.5a 5.5 5.5, 0, 0, 0, 5.5 5.5h 5.5v -5.5a 5.5 5.5, 0, 0, 0, -5.5 -5.5" transform="rotate(90,116.5,149.5)"/><path d="M 155 144v 11h 11a 11 11, 0, 0, 0, -11 -11" transform="rotate(90,160.5,149.5)"/><rect x="177" y="144" width="11" height="11" transform="rotate(0,182.5,149.5)"/><rect x="188" y="144" width="11" height="11" transform="rotate(0,193.5,149.5)"/><path d="M 210 144v 5.5a 5.5 5.5, 0, 0, 0, 5.5 5.5h 5.5v -5.5a 5.5 5.5, 0, 0, 0, -5.5 -5.5" transform="rotate(90,215.5,149.5)"/><path d="M 276 144v 11h 11a 11 11, 0, 0, 0, -11 -11" transform="rotate(90,281.5,149.5)"/><path d="M 12 155v 11h 11a 11 11, 0, 0, 0, -11 -11" transform="rotate(-90,17.5,160.5)"/><rect x="23" y="155" width="11" height="11" transform="rotate(0,28.5,160.5)"/><rect x="34" y="155" width="11" height="11" transform="rotate(0,39.5,160.5)"/><rect x="45" y="155" width="11" height="11" transform="rotate(0,50.5,160.5)"/><rect x="89" y="155" width="11" height="11" transform="rotate(0,94.5,160.5)"/><rect x="100" y="155" width="11" height="11" transform="rotate(0,105.5,160.5)"/><path d="M 122 155v 11h 11a 11 11, 0, 0, 0, -11 -11" transform="rotate(-90,127.5,160.5)"/><path d="M 144 155v 5.5a 5.5 5.5, 0, 0, 0, 5.5 5.5h 5.5v -5.5a 5.5 5.5, 0, 0, 0, -5.5 -5.5" transform="rotate(90,149.5,160.5)"/><rect x="177" y="155" width="11" height="11" transform="rotate(0,182.5,160.5)"/><path d="M 188 155v 11h 11a 11 11, 0, 0, 0, -11 -11" transform="rotate(90,193.5,160.5)"/><path d="M 221 155v 11h 11a 11 11, 0, 0, 0, -11 -11" transform="rotate(-90,226.5,160.5)"/><path d="M 265 155v 11h 11a 11 11, 0, 0, 0, -11 -11" transform="rotate(-90,270.5,160.5)"/><rect x="12" y="166" width="11" height="11" transform="rotate(0,17.5,171.5)"/><rect x="45" y="166" width="11" height="11" transform="rotate(0,50.5,171.5)"/><path d="M 67 166v 11h 11a 11 11, 0, 0, 0, -11 -11" transform="rotate(-90,72.5,171.5)"/><rect x="78" y="166" width="11" height="11" transform="rotate(0,83.5,171.5)"/><rect x="89" y="166" width="11" height="11" transform="rotate(0,94.5,171.5)"/><rect x="100" y="166" width="11" height="11" transform="rotate(0,105.5,171.5)"/><path d="M 122 166v 11h 11a 11 11, 0, 0, 0, -11 -11" transform="rotate(90,127.5,171.5)"/><path d="M 155 166v 5.5a 5.5 5.5, 0, 0, 0, 5.5 5.5h 5.5v -5.5a 5.5 5.5, 0, 0, 0, -5.5 -5.5" transform="rotate(90,160.5,171.5)"/><rect x="177" y="166" width="11" height="11" transform="rotate(0,182.5,171.5)"/><path d="M 199 166v 11h 11a 11 11, 0, 0, 0, -11 -11" transform="rotate(-90,204.5,171.5)"/><rect x="221" y="166" width="11" height="11" transform="rotate(0,226.5,171.5)"/><rect x="232" y="166" width="11" height="11" transform="rotate(0,237.5,171.5)"/><rect x="243" y="166" width="11" height="11" transform="rotate(0,248.5,171.5)"/><rect x="265" y="166" width="11" height="11" transform="rotate(0,270.5,171.5)"/><rect x="276" y="166" width="11" height="11" transform="rotate(0,281.5,171.5)"/><rect x="12" y="177" width="11" height="11" transform="rotate(0,17.5,182.5)"/><path d="M 45 177v 11h 11a 11 11, 0, 0, 0, -11 -11" transform="rotate(90,50.5,182.5)"/><rect x="100" y="177" width="11" height="11" transform="rotate(0,105.5,182.5)"/><path d="M 111 177v 11h 11a 11 11, 0, 0, 0, -11 -11" transform="rotate(90,116.5,182.5)"/><path d="M 133 177v 11h 11a 11 11, 0, 0, 0, -11 -11" transform="rotate(-90,138.5,182.5)"/><path d="M 177 177v 11h 11a 11 11, 0, 0, 0, -11 -11" transform="rotate(90,182.5,182.5)"/><rect x="199" y="177" width="11" height="11" transform="rotate(0,204.5,182.5)"/><rect x="221" y="177" width="11" height="11" transform="rotate(0,226.5,182.5)"/><rect x="243" y="177" width="11" height="11" transform="rotate(0,248.5,182.5)"/><rect x="254" y="177" width="11" height="11" transform="rotate(0,259.5,182.5)"/><path d="M 276 177v 11h 11a 11 11, 0, 0, 0, -11 -11" transform="rotate(90,281.5,182.5)"/><path d="M 12 188v 11h 11a 11 11, 0, 0, 0, -11 -11" transform="rotate(90,17.5,193.5)"/><path d="M 34 188v 5.5a 5.5 5.5, 0, 0, 0, 5.5 5.5h 5.5v -5.5a 5.5 5.5, 0, 0, 0, -5.5 -5.5" transform="rotate(90,39.5,193.5)"/><path d="M 67 188v 11h 11a 11 11, 0, 0, 0, -11 -11" transform="rotate(-90,72.5,193.5)"/><path d="M 78 188v 11h 11a 11 11, 0, 0, 0, -11 -11" transform="rotate(90,83.5,193.5)"/><path d="M 122 188v 11h 11a 11 11, 0, 0, 0, -11 -11" transform="rotate(-90,127.5,193.5)"/><rect x="133" y="188" width="11" height="11" transform="rotate(0,138.5,193.5)"/><rect x="144" y="188" width="11" height="11" transform="rotate(0,149.5,193.5)"/><rect x="155" y="188" width="11" height="11" transform="rotate(0,160.5,193.5)"/><path d="M 166 188v 11h 11a 11 11, 0, 0, 0, -11 -11" transform="rotate(90,171.5,193.5)"/><path d="M 188 188v 11h 11a 11 11, 0, 0, 0, -11 -11" transform="rotate(-90,193.5,193.5)"/><rect x="199" y="188" width="11" height="11" transform="rotate(0,204.5,193.5)"/><rect x="210" y="188" width="11" height="11" transform="rotate(0,215.5,193.5)"/><rect x="221" y="188" width="11" height="11" transform="rotate(0,226.5,193.5)"/><rect x="232" y="188" width="11" height="11" transform="rotate(0,237.5,193.5)"/><path d="M 254 188v 11h 11a 11 11, 0, 0, 0, -11 -11" transform="rotate(90,259.5,193.5)"/><path d="M 100 199v 11h 11a 11 11, 0, 0, 0, -11 -11" transform="rotate(-90,105.5,204.5)"/><rect x="122" y="199" width="11" height="11" transform="rotate(0,127.5,204.5)"/><rect x="133" y="199" width="11" height="11" transform="rotate(0,138.5,204.5)"/><rect x="188" y="199" width="11" height="11" transform="rotate(0,193.5,204.5)"/><rect x="232" y="199" width="11" height="11" transform="rotate(0,237.5,204.5)"/><rect x="100" y="210" width="11" height="11" transform="rotate(0,105.5,215.5)"/><rect x="111" y="210" width="11" height="11" transform="rotate(0,116.5,215.5)"/><rect x="122" y="210" width="11" height="11" transform="rotate(0,127.5,215.5)"/><rect x="133" y="210" width="11" height="11" transform="rotate(0,138.5,215.5)"/><path d="M 144 210v 11h 11a 11 11, 0, 0, 0, -11 -11" transform="rotate(90,149.5,215.5)"/><path d="M 166 210v 5.5a 5.5 5.5, 0, 0, 0, 5.5 5.5h 5.5v -5.5a 5.5 5.5, 0, 0, 0, -5.5 -5.5" transform="rotate(90,171.5,215.5)"/><rect x="188" y="210" width="11" height="11" transform="rotate(0,193.5,215.5)"/><path d="M 210 210v 5.5a 5.5 5.5, 0, 0, 0, 5.5 5.5h 5.5v -5.5a 5.5 5.5, 0, 0, 0, -5.5 -5.5" transform="rotate(90,215.5,215.5)"/><rect x="232" y="210" width="11" height="11" transform="rotate(0,237.5,215.5)"/><path d="M 276 210v 11h 11a 11 11, 0, 0, 0, -11 -11" transform="rotate(-90,281.5,215.5)"/><path d="M 133 221v 11h 11a 11 11, 0, 0, 0, -11 -11" transform="rotate(90,138.5,226.5)"/><path d="M 155 221v 5.5a 5.5 5.5, 0, 0, 0, 5.5 5.5h 5.5v -5.5a 5.5 5.5, 0, 0, 0, -5.5 -5.5" transform="rotate(90,160.5,226.5)"/><rect x="188" y="221" width="11" height="11" transform="rotate(0,193.5,226.5)"/><rect x="232" y="221" width="11" height="11" transform="rotate(0,237.5,226.5)"/><path d="M 265 221v 11h 11a 11 11, 0, 0, 0, -11 -11" transform="rotate(-90,270.5,226.5)"/><rect x="276" y="221" width="11" height="11" transform="rotate(0,281.5,226.5)"/><path d="M 111 232v 11h 11a 11 11, 0, 0, 0, -11 -11" transform="rotate(-90,116.5,237.5)"/><path d="M 144 232v 5.5a 5.5 5.5, 0, 0, 0, 5.5 5.5h 5.5v -5.5a 5.5 5.5, 0, 0, 0, -5.5 -5.5" transform="rotate(90,149.5,237.5)"/><path d="M 177 232v 11h 11a 11 11, 0, 0, 0, -11 -11" transform="rotate(-90,182.5,237.5)"/><rect x="188" y="232" width="11" height="11" transform="rotate(0,193.5,237.5)"/><rect x="199" y="232" width="11" height="11" transform="rotate(0,204.5,237.5)"/><rect x="210" y="232" width="11" height="11" transform="rotate(0,215.5,237.5)"/><rect x="221" y="232" width="11" height="11" transform="rotate(0,226.5,237.5)"/><path d="M 232 232v 11h 11a 11 11, 0, 0, 0, -11 -11" transform="rotate(90,237.5,237.5)"/><path d="M 254 232v 5.5a 5.5 5.5, 0, 0, 0, 5.5 5.5h 5.5v -5.5a 5.5 5.5, 0, 0, 0, -5.5 -5.5" transform="rotate(90,259.5,237.5)"/><rect x="276" y="232" width="11" height="11" transform="rotate(0,281.5,237.5)"/><rect x="111" y="243" width="11" height="11" transform="rotate(0,116.5,248.5)"/><path d="M 133 243v 5.5a 5.5 5.5, 0, 0, 0, 5.5 5.5h 5.5v -5.5a 5.5 5.5, 0, 0, 0, -5.5 -5.5" transform="rotate(90,138.5,248.5)"/><rect x="199" y="243" width="11" height="11" transform="rotate(0,204.5,248.5)"/><path d="M 210 243v 11h 11a 11 11, 0, 0, 0, -11 -11" transform="rotate(90,215.5,248.5)"/><path d="M 265 243v 11h 11a 11 11, 0, 0, 0, -11 -11" transform="rotate(-90,270.5,248.5)"/><rect x="276" y="243" width="11" height="11" transform="rotate(0,281.5,248.5)"/><rect x="111" y="254" width="11" height="11" transform="rotate(0,116.5,259.5)"/><rect x="122" y="254" width="11" height="11" transform="rotate(0,127.5,259.5)"/><path d="M 155 254v 11h 11a 11 11, 0, 0, 0, -11 -11" transform="rotate(-90,160.5,259.5)"/><rect x="166" y="254" width="11" height="11" transform="rotate(0,171.5,259.5)"/><rect x="177" y="254" width="11" height="11" transform="rotate(0,182.5,259.5)"/><path d="M 243 254v 11h 11a 11 11, 0, 0, 0, -11 -11" transform="rotate(-90,248.5,259.5)"/><path d="M 254 254v 11h 11a 11 11, 0, 0, 0, -11 -11" transform="rotate(90,259.5,259.5)"/><rect x="276" y="254" width="11" height="11" transform="rotate(0,281.5,259.5)"/><path d="M 100 265v 5.5a 5.5 5.5, 0, 0, 0, 5.5 5.5h 5.5v -5.5a 5.5 5.5, 0, 0, 0, -5.5 -5.5" transform="rotate(90,105.5,270.5)"/><path d="M 122 265v 11h 11a 11 11, 0, 0, 0, -11 -11" transform="rotate(90,127.5,270.5)"/><rect x="177" y="265" width="11" height="11" transform="rotate(0,182.5,270.5)"/><rect x="188" y="265" width="11" height="11" transform="rotate(0,193.5,270.5)"/><path d="M 210 265v 11h 11a 11 11, 0, 0, 0, -11 -11" transform="rotate(-90,215.5,270.5)"/><rect x="221" y="265" width="11" height="11" transform="rotate(0,226.5,270.5)"/><path d="M 232 265v 11h 11a 11 11, 0, 0, 0, -11 -11" transform="rotate(90,237.5,270.5)"/><rect x="276" y="265" width="11" height="11" transform="rotate(0,281.5,270.5)"/><path d="M 111 276v 5.5a 5.5 5.5, 0, 0, 0, 5.5 5.5h 5.5v -5.5a 5.5 5.5, 0, 0, 0, -5.5 -5.5" transform="rotate(90,116.5,281.5)"/><path d="M 144 276v 11h 11a 11 11, 0, 0, 0, -11 -11" transform="rotate(-90,149.5,281.5)"/><rect x="155" y="276" width="11" height="11" transform="rotate(0,160.5,281.5)"/><path d="M 166 276v 11h 11a 11 11, 0, 0, 0, -11 -11" transform="rotate(90,171.5,281.5)"/><path d="M 188 276v 11h 11a 11 11, 0, 0, 0, -11 -11" transform="rotate(90,193.5,281.5)"/><path d="M 210 276v 11h 11a 11 11, 0, 0, 0, -11 -11" transform="rotate(90,215.5,281.5)"/><path d="M 243 276v 5.5a 5.5 5.5, 0, 0, 0, 5.5 5.5h 5.5v -5.5a 5.5 5.5, 0, 0, 0, -5.5 -5.5" transform="rotate(90,248.5,281.5)"/><path d="M 276 276v 11h 11a 11 11, 0, 0, 0, -11 -11" transform="rotate(90,281.5,281.5)"/></clipPath><clipPath id="clip-path-corners-square-color-0-0-3"><path clip-rule="evenodd" d="M 12 12v 77h 77v -77zM 23 23h 55v 55h -55z" transform="rotate(0,50.5,50.5)"/></clipPath><clipPath id="clip-path-corners-dot-color-0-0-3"><circle cx="50.5" cy="50.5" r="16.5" transform="rotate(0,50.5,50.5)"/></clipPath><clipPath id="clip-path-corners-square-color-1-0-3"><path clip-rule="evenodd" d="M 210 12v 77h 77v -77zM 221 23h 55v 55h -55z" transform="rotate(90,248.5,50.5)"/></clipPath><clipPath id="clip-path-corners-dot-color-1-0-3"><circle cx="248.5" cy="50.5" r="16.5" transform="rotate(90,248.5,50.5)"/></clipPath><clipPath id="clip-path-corners-square-color-0-1-3"><path clip-rule="evenodd" d="M 12 210v 77h 77v -77zM 23 221h 55v 55h -55z" transform="rotate(-90,50.5,248.5)"/></clipPath><clipPath id="clip-path-corners-dot-color-0-1-3"><circle cx="50.5" cy="248.5" r="16.5" transform="rotate(-90,50.5,248.5)"/></clipPath></defs><rect x="0" y="0" height="300" width="300" clip-path="url('#clip-path-background-color-3')" fill="#9900ff"/><rect x="0" y="0" height="300" width="300" clip-path="url('#clip-path-dot-color-3')" fill="#ffffff"/><rect x="12" y="12" height="77" width="77" clip-path="url('#clip-path-corners-square-color-0-0-3')" fill="#ffffff"/><rect x="34" y="34" height="33" width="33" clip-path="url('#clip-path-corners-dot-color-0-0-3')" fill="#ffffff"/><rect x="210" y="12" height="77" width="77" clip-path="url('#clip-path-corners-square-color-1-0-3')" fill="#ffffff"/><rect x="232" y="34" height="33" width="33" clip-path="url('#clip-path-corners-dot-color-1-0-3')" fill="#ffffff"/><rect x="12" y="210" height="77" width="77" clip-path="url('#clip-path-corners-square-color-0-1-3')" fill="#ffffff"/><rect x="34" y="232" height="33" width="33" clip-path="url('#clip-path-corners-dot-color-0-1-3')" fill="#ffffff"/></svg>