<?xml version="1.0" standalone="no"?>
<svg xmlns="http://www.w3.org/2000/svg" width="300" height="300" xmlns:xlink="http://www.w3.org/1999/xlink" viewBox="0 0 300 300"><defs><clipPath id="clip-path-background-color-3"><rect x="0" y="0" width="300" height="300"/></clipPath><clipPath id="clip-path-dot-color-3"><circle cx="105.5" cy="17.5" r="5.5" transform="rotate(0,105.5,17.5)"/><circle cx="116.5" cy="17.5" r="5.5" transform="rotate(0,116.5,17.5)"/><circle cx="138.5" cy="17.5" r="5.5" transform="rotate(0,138.5,17.5)"/><circle cx="149.5" cy="17.5" r="5.5" transform="rotate(0,149.5,17.5)"/><circle cx="171.5" cy="17.5" r="5.5" transform="rotate(0,171.5,17.5)"/><circle cx="182.5" cy="17.5" r="5.5" transform="rotate(0,182.5,17.5)"/><circle cx="193.5" cy="17.5" r="5.5" transform="rotate(0,193.5,17.5)"/><circle cx="105.5" cy="28.5" r="5.5" transform="rotate(0,105.5,28.5)"/><circle cx="116.5" cy="28.5" r="5.5" transform="rotate(0,116.5,28.5)"/><circle cx="149.5" cy="28.5" r="5.5" transform="rotate(0,149.5,28.5)"/><circle cx="160.5" cy="28.5" r="5.5" transform="rotate(0,160.5,28.5)"/><circle cx="171.5" cy="28.5" r="5.5" transform="rotate(0,171.5,28.5)"/><circle cx="193.5" cy="28.5" r="5.5" transform="rotate(0,193.5,28.5)"/><circle cx="116.5" cy="39.5" r="5.5" transform="rotate(0,116.5,39.5)"/><circle cx="127.5" cy="39.5" r="5.5" transform="rotate(0,127.5,39.5)"/><circle cx="149.5" cy="39.5" r="5.5" transform="rotate(0,149.5,39.5)"/><circle cx="160.5" cy="39.5" r="5.5" transform="rotate(0,160.5,39.5)"/><circle cx="182.5" cy="39.5" r="5.5" transform="rotate(0,182.5,39.5)"/><circle cx="193.5" cy="39.5" r="5.5" transform="rotate(0,193.5,39.5)"/><circle cx="149.5" cy="50.5" r="5.5" transform="rotate(0,149.5,50.5)"/><circle cx="182.5" cy="50.5" r="5.5" transform="rotate(0,182.5,50.5)"/><circle cx="193.5" cy="50.5" r="5.5" transform="rotate(0,193.5,50.5)"/><circle cx="116.5" cy="61.5" r="5.5" transform="rotate(0,116.5,61.5)"/><circle cx="149.5" cy="61.5" r="5.5" transform="rotate(0,149.5,61.5)"/><circle cx="193.5" cy="61.5" r="5.5" transform="rotate(0,193.5,61.5)"/><circle cx="116.5" cy="72.5" r="5.5" transform="rotate(0,116.5,72.5)"/><circle cx="193.5" cy="72.5" r="5.5" transform="rotate(0,193.5,72.5)"/><circle cx="105.5" cy="83.5" r="5.5" transform="rotate(0,105.5,83.5)"/><circle cx="127.5" cy="83.5" r="5.5" transform="rotate(0,127.5,83.5)"/><circle cx="149.5" cy="83.5" r="5.5" transform="rotate(0,149.5,83.5)"/><circle cx="171.5" cy="83.5" r="5.5" transform="rotate(0,171.5,83.5)"/><circle cx="193.5" cy="83.5" r="5.5" transform="rotate(0,193.5,83.5)"/><circle cx="127.5" cy="94.5" r="5.5" transform="rotate(0,127.5,94.5)"/><circle cx="149.5" cy="94.5" r="5.5" transform="rotate(0,149.5,94.5)"/><circle cx="171.5" cy="94.5" r="5.5" transform="rotate(0,171.5,94.5)"/><circle cx="182.5" cy="94.5" r="5.5" transform="rotate(0,182.5,94.5)"/><circle cx="193.5" cy="94.5" r="5.5" transform="rotate(0,193.5,94.5)"/><circle cx="28.5" cy="105.5" r="5.5" transform="rotate(0,28.5,105.5)"/><circle cx="83.5" cy="105.5" r="5.5" transform="rotate(0,83.5,105.5)"/><circle cx="94.5" cy="105.5" r="5.5" transform="rotate(0,94.5,105.5)"/><circle cx="105.5" cy="105.5" r="5.5" transform="rotate(0,105.5,105.5)"/><circle cx="116.5" cy="105.5" r="5.5" transform="rotate(0,116.5,105.5)"/><circle cx="127.5" cy="105.5" r="5.5" transform="rotate(0,127.5,105.5)"/><circle cx="138.5" cy="105.5" r="5.5" transform="rotate(0,138.5,105.5)"/><circle cx="149.5" cy="105.5" r="5.5" transform="rotate(0,149.5,105.5)"/><circle cx="204.5" cy="105.5" r="5.5" transform="rotate(0,204.5,105.5)"/><circle cx="270.5" cy="105.5" r="5.5" transform="rotate(0,270.5,105.5)"/><circle cx="281.5" cy="105.5" r="5.5" transform="rotate(0,281.5,105.5)"/><circle cx="28.5" cy="116.5" r="5.5" transform="rotate(0,28.5,116.5)"/><circle cx="72.5" cy="116.5" r="5.5" transform="rotate(0,72.5,116.5)"/><circle cx="94.5" cy="116.5" r="5.5" transform="rotate(0,94.5,116.5)"/><circle cx="127.5" cy="116.5" r="5.5" transform="rotate(0,127.5,116.5)"/><circle cx="138.5" cy="116.5" r="5.5" transform="rotate(0,138.5,116.5)"/><circle cx="149.5" cy="116.5" r="5.5" transform="rotate(0,149.5,116.5)"/><circle cx="160.5" cy="116.5" r="5.5" transform="rotate(0,160.5,116.5)"/><circle cx="182.5" cy="116.5" r="5.5" transform="rotate(0,182.5,116.5)"/><circle cx="204.5" cy="116.5" r="5.5" transform="rotate(0,204.5,116.5)"/><circle cx="226.5" cy="116.5" r="5.5" transform="rotate(0,226.5,116.5)"/><circle cx="237.5" cy="116.5" r="5.5" transform="rotate(0,237.5,116.5)"/><circle cx="248.5" cy="116.5" r="5.5" transform="rotate(0,248.5,116.5)"/><circle cx="259.5" cy="116.5" r="5.5" transform="rotate(0,259.5,116.5)"/><circle cx="270.5" cy="116.5" r="5.5" transform="rotate(0,270.5,116.5)"/><circle cx="17.5" cy="127.5" r="5.5" transform="rotate(0,17.5,127.5)"/><circle cx="50.5" cy="127.5" r="5.5" transform="rotate(0,50.5,127.5)"/><circle cx="61.5" cy="127.5" r="5.5" transform="rotate(0,61.5,127.5)"/><circle cx="72.5" cy="127.5" r="5.5" transform="rotate(0,72.5,127.5)"/><circle cx="83.5" cy="127.5" r="5.5" transform="rotate(0,83.5,127.5)"/><circle cx="105.5" cy="127.5" r="5.5" transform="rotate(0,105.5,127.5)"/><circle cx="138.5" cy="127.5" r="5.5" transform="rotate(0,138.5,127.5)"/><circle cx="160.5" cy="127.5" r="5.5" transform="rotate(0,160.5,127.5)"/><circle cx="171.5" cy="127.5" r="5.5" transform="rotate(0,171.5,127.5)"/><circle cx="182.5" cy="127.5" r="5.5" transform="rotate(0,182.5,127.5)"/><circle cx="193.5" cy="127.5" r="5.5" transform="rotate(0,193.5,127.5)"/><circle cx="215.5" cy="127.5" r="5.5" transform="rotate(0,215.5,127.5)"/><circle cx="226.5" cy="127.5" r="5.5" transform="rotate(0,226.5,127.5)"/><circle cx="248.5" cy="127.5" r="5.5" transform="rotate(0,248.5,127.5)"/><circle cx="270.5" cy="127.5" r="5.5" transform="rotate(0,270.5,127.5)"/><circle cx="281.5" cy="127.5" r="5.5" transform="rotate(0,281.5,127.5)"/><circle cx="39.5" cy="138.5" r="5.5" transform="rotate(0,39.5,138.5)"/><circle cx="50.5" cy="138.5" r="5.5" transform="rotate(0,50.5,138.5)"/><circle cx="94.5" cy="138.5" r="5.5" transform="rotate(0,94.5,138.5)"/><circle cx="138.5" cy="138.5" r="5.5" transform="rotate(0,138.5,138.5)"/><circle cx="160.5" cy="138.5" r="5.5" transform="rotate(0,160.5,138.5)"/><circle cx="182.5" cy="138.5" r="5.5" transform="rotate(0,182.5,138.5)"/><circle cx="248.5" cy="138.5" r="5.5" transform="rotate(0,248.5,138.5)"/><circle cx="281.5" cy="138.5" r="5.5" transform="rotate(0,281.5,138.5)"/><circle cx="39.5" cy="149.5" r="5.5" transform="rotate(0,39.5,149.5)"/><circle cx="72.5" cy="149.5" r="5.5" transform="rotate(0,72.5,149.5)"/><circle cx="83.5" cy="149.5" r="5.5" transform="rotate(0,83.5,149.5)"/><circle cx="94.5" cy="149.5" r="5.5" transform="rotate(0,94.5,149.5)"/><circle cx="116.5" cy="149.5" r="5.5" transform="rotate(0,116.5,149.5)"/><circle cx="160.5" cy="149.5" r="5.5" transform="rotate(0,160.5,149.5)"/><circle cx="182.5" cy="149.5" r="5.5" transform="rotate(0,182.5,149.5)"/><circle cx="193.5" cy="149.5" r="5.5" transform="rotate(0,193.5,149.5)"/><circle cx="215.5" cy="149.5" r="5.5" transform="rotate(0,215.5,149.5)"/><circle cx="281.5" cy="149.5" r="5.5" transform="rotate(0,281.5,149.5)"/><circle cx="17.5" cy="160.5" r="5.5" transform="rotate(0,17.5,160.5)"/><circle cx="28.5" cy="160.5" r="5.5" transform="rotate(0,28.5,160.5)"/><circle cx="39.5" cy="160.5" r="5.5" transform="rotate(0,39.5,160.5)"/><circle cx="50.5" cy="160.5" r="5.5" transform="rotate(0,50.5,160.5)"/><circle cx="94.5" cy="160.5" r="5.5" transform="rotate(0,94.5,160.5)"/><circle cx="105.5" cy="160.5" r="5.5" transform="rotate(0,105.5,160.5)"/><circle cx="127.5" cy="160.5" r="5.5" transform="rotate(0,127.5,160.5)"/><circle cx="149.5" cy="160.5" r="5.5" transform="rotate(0,149.5,160.5)"/><circle cx="182.5" cy="160.5" r="5.5" transform="rotate(0,182.5,160.5)"/><circle cx="193.5" cy="160.5" r="5.5" transform="rotate(0,193.5,160.5)"/><circle cx="226.5" cy="160.5" r="5.5" transform="rotate(0,226.5,160.5)"/><circle cx="270.5" cy="160.5" r="5.5" transform="rotate(0,270.5,160.5)"/><circle cx="17.5" cy="171.5" r="5.5" transform="rotate(0,17.5,171.5)"/><circle cx="50.5" cy="171.5" r="5.5" transform="rotate(0,50.5,171.5)"/><circle cx="72.5" cy="171.5" r="5.5" transform="rotate(0,72.5,171.5)"/><circle cx="83.5" cy="171.5" r="5.5" transform="rotate(0,83.5,171.5)"/><circle cx="94.5" cy="171.5" r="5.5" transform="rotate(0,94.5,171.5)"/><circle cx="105.5" cy="171.5" r="5.5" transform="rotate(0,105.5,171.5)"/><circle cx="127.5" cy="171.5" r="5.5" transform="rotate(0,127.5,171.5)"/><circle cx="160.5" cy="171.5" r="5.5" transform="rotate(0,160.5,171.5)"/><circle cx="182.5" cy="171.5" r="5.5" transform="rotate(0,182.5,171.5)"/><circle cx="204.5" cy="171.5" r="5.5" transform="rotate(0,204.5,171.5)"/><circle cx="226.5" cy="171.5" r="5.5" transform="rotate(0,226.5,171.5)"/><circle cx="237.5" cy="171.5" r="5.5" transform="rotate(0,237.5,171.5)"/><circle cx="248.5" cy="171.5" r="5.5" transform="rotate(0,248.5,171.5)"/><circle cx="270.5" cy="171.5" r="5.5" transform="rotate(0,270.5,171.5)"/><circle cx="281.5" cy="171.5" r="5.5" transform="rotate(0,281.5,171.5)"/><circle cx="17.5" cy="182.5" r="5.5" transform="rotate(0,17.5,182.5)"/><circle cx="50.5" cy="182.5" r="5.5" transform="rotate(0,50.5,182.5)"/><circle cx="105.5" cy="182.5" r="5.5" transform="rotate(0,105.5,182.5)"/><circle cx="116.5" cy="182.5" r="5.5" transform="rotate(0,116.5,182.5)"/><circle cx="138.5" cy="182.5" r="5.5" transform="rotate(0,138.5,182.5)"/><circle cx="182.5" cy="182.5" r="5.5" transform="rotate(0,182.5,182.5)"/><circle cx="204.5" cy="182.5" r="5.5" transform="rotate(0,204.5,182.5)"/><circle cx="226.5" cy="182.5" r="5.5" transform="rotate(0,226.5,182.5)"/><circle cx="248.5" cy="182.5" r="5.5" transform="rotate(0,248.5,182.5)"/><circle cx="259.5" cy="182.5" r="5.5" transform="rotate(0,259.5,182.5)"/><circle cx="281.5" cy="182.5" r="5.5" transform="rotate(0,281.5,182.5)"/><circle cx="17.5" cy="193.5" r="5.5" transform="rotate(0,17.5,193.5)"/><circle cx="39.5" cy="193.5" r="5.5" transform="rotate(0,39.5,193.5)"/><circle cx="72.5" cy="193.5" r="5.5" transform="rotate(0,72.5,193.5)"/><circle cx="83.5" cy="193.5" r="5.5" transform="rotate(0,83.5,193.5)"/><circle cx="127.5" cy="193.5" r="5.5" transform="rotate(0,127.5,193.5)"/><circle cx="138.5" cy="193.5" r="5.5" transform="rotate(0,138.5,193.5)"/><circle cx="149.5" cy="193.5" r="5.5" transform="rotate(0,149.5,193.5)"/><circle cx="160.5" cy="193.5" r="5.5" transform="rotate(0,160.5,193.5)"/><circle cx="171.5" cy="193.5" r="5.5" transform="rotate(0,171.5,193.5)"/><circle cx="193.5" cy="193.5" r="5.5" transform="rotate(0,193.5,193.5)"/><circle cx="204.5" cy="193.5" r="5.5" transform="rotate(0,204.5,193.5)"/><circle cx="215.5" cy="193.5" r="5.5" transform="rotate(0,215.5,193.5)"/><circle cx="226.5" cy="193.5" r="5.5" transform="rotate(0,226.5,193.5)"/><circle cx="237.5" cy="193.5" r="5.5" transform="rotate(0,237.5,193.5)"/><circle cx="259.5" cy="193.5" r="5.5" transform="rotate(0,259.5,193.5)"/><circle cx="105.5" cy="204.5" r="5.5" transform="rotate(0,105.5,204.5)"/><circle cx="127.5" cy="204.5" r="5.5" transform="rotate(0,127.5,204.5)"/><circle cx="138.5" cy="204.5" r="5.5" transform="rotate(0,138.5,204.5)"/><circle cx="193.5" cy="204.5" r="5.5" transform="rotate(0,193.5,204.5)"/><circle cx="237.5" cy="204.5" r="5.5" transform="rotate(0,237.5,204.5)"/><circle cx="105.5" cy="215.5" r="5.5" transform="rotate(0,105.5,215.5)"/><circle cx="116.5" cy="215.5" r="5.5" transform="rotate(0,116.5,215.5)"/><circle cx="127.5" cy="215.5" r="5.5" transform="rotate(0,127.5,215.5)"/><circle cx="138.5" cy="215.5" r="5.5" transform="rotate(0,138.5,215.5)"/><circle cx="149.5" cy="215.5" r="5.5" transform="rotate(0,149.5,215.5)"/><circle cx="171.5" cy="215.5" r="5.5" transform="rotate(0,171.5,215.5)"/><circle cx="193.5" cy="215.5" r="5.5" transform="rotate(0,193.5,215.5)"/><circle cx="215.5" cy="215.5" r="5.5" transform="rotate(0,215.5,215.5)"/><circle cx="237.5" cy="215.5" r="5.5" transform="rotate(0,237.5,215.5)"/><circle cx="281.5" cy="215.5" r="5.5" transform="rotate(0,281.5,215.5)"/><circle cx="138.5" cy="226.5" r="5.5" transform="rotate(0,138.5,226.5)"/><circle cx="160.5" cy="226.5" r="5.5" transform="rotate(0,160.5,226.5)"/><circle cx="193.5" cy="226.5" r="5.5" transform="rotate(0,193.5,226.5)"/><circle cx="237.5" cy="226.5" r="5.5" transform="rotate(0,237.5,226.5)"/><circle cx="270.5" cy="226.5" r="5.5" transform="rotate(0,270.5,226.5)"/><circle cx="281.5" cy="226.5" r="5.5" transform="rotate(0,281.5,226.5)"/><circle cx="116.5" cy="237.5" r="5.5" transform="rotate(0,116.5,237.5)"/><circle cx="149.5" cy="237.5" r="5.5" transform="rotate(0,149.5,237.5)"/><circle cx="182.5" cy="237.5" r="5.5" transform="rotate(0,182.5,237.5)"/><circle cx="193.5" cy="237.5" r="5.5" transform="rotate(0,193.5,237.5)"/><circle cx="204.5" cy="237.5" r="5.5" transform="rotate(0,204.5,237.5)"/><circle cx="215.5" cy="237.5" r="5.5" transform="rotate(0,215.5,237.5)"/><circle cx="226.5" cy="237.5" r="5.5" transform="rotate(0,226.5,237.5)"/><circle cx="237.5" cy="237.5" r="5.5" transform="rotate(0,237.5,237.5)"/><circle cx="259.5" cy="237.5" r="5.5" transform="rotate(0,259.5,237.5)"/><circle cx="281.5" cy="237.5" r="5.5" transform="rotate(0,281.5,237.5)"/><circle cx="116.5" cy="248.5" r="5.5" transform="rotate(0,116.5,248.5)"/><circle cx="138.5" cy="248.5" r="5.5" transform="rotate(0,138.5,248.5)"/><circle cx="204.5" cy="248.5" r="5.5" transform="rotate(0,204.5,248.5)"/><circle cx="215.5" cy="248.5" r="5.5" transform="rotate(0,215.5,248.5)"/><circle cx="270.5" cy="248.5" r="5.5" transform="rotate(0,270.5,248.5)"/><circle cx="281.5" cy="248.5" r="5.5" transform="rotate(0,281.5,248.5)"/><circle cx="116.5" cy="259.5" r="5.5" transform="rotate(0,116.5,259.5)"/><circle cx="127.5" cy="259.5" r="5.5" transform="rotate(0,127.5,259.5)"/><circle cx="160.5" cy="259.5" r="5.5" transform="rotate(0,160.5,259.5)"/><circle cx="171.5" cy="259.5" r="5.5" transform="rotate(0,171.5,259.5)"/><circle cx="182.5" cy="259.5" r="5.5" transform="rotate(0,182.5,259.5)"/><circle cx="248.5" cy="259.5" r="5.5" transform="rotate(0,248.5,259.5)"/><circle cx="259.5" cy="259.5" r="5.5" transform="rotate(0,259.5,259.5)"/><circle cx="281.5" cy="259.5" r="5.5" transform="rotate(0,281.5,259.5)"/><circle cx="105.5" cy="270.5" r="5.5" transform="rotate(0,105.5,270.5)"/><circle cx="127.5" cy="270.5" r="5.5" transform="rotate(0,127.5,270.5)"/><circle cx="182.5" cy="270.5" r="5.5" transform="rotate(0,182.5,270.5)"/><circle cx="193.5" cy="270.5" r="5.5" transform="rotate(0,193.5,270.5)"/><circle cx="215.5" cy="270.5" r="5.5" transform="rotate(0,215.5,270.5)"/><circle cx="226.5" cy="270.5" r="5.5" transform="rotate(0,226.5,270.5)"/><circle cx="237.5" cy="270.5" r="5.5" transform="rotate(0,237.5,270.5)"/><circle cx="281.5" cy="270.5" r="5.5" transform="rotate(0,281.5,270.5)"/><circle cx="116.5" cy="281.5" r="5.5" transform="rotate(0,116.5,281.5)"/><circle cx="149.5" cy="281.5" r="5.5" transform="rotate(0,149.5,281.5)"/><circle cx="160.5" cy="281.5" r="5.5" transform="rotate(0,160.5,281.5)"/><circle cx="171.5" cy="281.5" r="5.5" transform="rotate(0,171.5,281.5)"/><circle cx="193.5" cy="281.5" r="5.5" transform="rotate(0,193.5,281.5)"/><circle cx="215.5" cy="281.5" r="5.5" transform="rotate(0,215.5,281.5)"/><circle cx="248.5" cy="281.5" r="5.5" transform="rotate(0,248.5,281.5)"/><circle cx="281.5" cy="281.5" r="5.5" transform="rotate(0,281.5,281.5)"/></clipPath><clipPath id="clip-path-corners-square-color-0-0-3"><path clip-rule="evenodd" d="M 12 39.5v 22a 27.5 27.5, 0, 0, 0, 27.5 27.5h 22a 27.5 27.5, 0, 0, 0, 27.5 -27.5v -22a 27.5 27.5, 0, 0, 0, -27.5 -27.5h -22a 27.5 27.5, 0, 0, 0, -27.5 27.5M 39.5 23h 22a 16.5 16.5, 0, 0, 1, 16.5 16.5v 22a 16.5 16.5, 0, 0, 1, -16.5 16.5h -22a 16.5 16.5, 0, 0, 1, -16.5 -16.5v -22a 16.5 16.5, 0, 0, 1, 16.5 -16.5" transform="rotate(0,50.5,50.5)"/></clipPath><clipPath id="clip-path-corners-dot-color-0-0-3"><rect x="34" y="34" width="33" height="33" transform="rotate(0,50.5,50.5)"/></clipPath><clipPath id="clip-path-corners-square-color-1-0-3"><path clip-rule="evenodd" d="M 210 39.5v 22a 27.5 27.5, 0, 0, 0, 27.5 27.5h 22a 27.5 27.5, 0, 0, 0, 27.5 -27.5v -22a 27.5 27.5, 0, 0, 0, -27.5 -27.5h -22a 27.5 27.5, 0, 0, 0, -27.5 27.5M 237.5 23h 22a 16.5 16.5, 0, 0, 1, 16.5 16.5v 22a 16.5 16.5, 0, 0, 1, -16.5 16.5h -22a 16.5 16.5, 0, 0, 1, -16.5 -16.5v -22a 16.5 16.5, 0, 0, 1, 16.5 -16.5" transform="rotate(90,248.5,50.5)"/></clipPath><clipPath id="clip-path-corners-dot-color-1-0-3"><rect x="232" y="34" width="33" height="33" transform="rotate(90,248.5,50.5)"/></clipPath><clipPath id="clip-path-corners-square-color-0-1-3"><path clip-rule="evenodd" d="M 12 237.5v 22a 27.5 27.5, 0, 0, 0, 27.5 27.5h 22a 27.5 27.5, 0, 0, 0, 27.5 -27.5v -22a 27.5 27.5, 0, 0, 0, -27.5 -27.5h -22a 27.5 27.5, 0, 0, 0, -27.5 27.5M 39.5 221h 22a 16.5 16.5, 0, 0, 1, 16.5 16.5v 22a 16.5 16.5, 0, 0, 1, -16.5 16.5h -22a 16.5 16.5, 0, 0, 1, -16.5 -16.5v -22a 16.5 16.5, 0, 0, 1, 16.5 -16.5" transform="rotate(-90,50.5,248.5)"/></clipPath><clipPath id="clip-path-corners-dot-color-0-1-3"><rect x="34" y="232" width="33" height="33" transform="rotate(-90,50.5,248.5)"/></clipPath></defs><rect x="0" y="0" height="300" width="300" clip-path="url('#clip-path-background-color-3')" fill="#ead1dc"/><rect x="0" y="0" height="300" width="300" clip-path="url('#clip-path-dot-color-3')" fill="#cc0000"/><rect x="12" y="12" height="77" width="77" clip-path="url('#clip-path-corners-square-color-0-0-3')" fill="#cc0000"/><rect x="34" y="34" height="33" width="33" clip-path="url('#clip-path-corners-dot-color-0-0-3')" fill="#cc0000"/><rect x="210" y="12" height="77" width="77" clip-path="url('#clip-path-corners-square-color-1-0-3')" fill="#cc0000"/><rect x="232" y="34" height="33" width="33" clip-path="url('#clip-path-corners-dot-color-1-0-3')" fill="#cc0000"/><rect x="12" y="210" height="77" width="77" clip-path="url('#clip-path-corners-square-color-0-1-3')" fill="#cc0000"/><rect x="34" y="232" height="33" width="33" clip-path="url('#clip-path-corners-dot-color-0-1-3')" fill="#cc0000"/></svg>