<svg width="512" height="512" viewBox="0 0 512 512" xmlns="http://www.w3.org/2000/svg">
    <path d="M256 512C114.611 512 0 397.389 0 256S114.611 0 256 0s256 114.611 256 256c-.154 141.312-114.688 255.846-256 256ZM146.611 327.347c-3.302 0-6.579.41-9.805 1.178l-3.84 1.049-15.206 26.036a21.07 21.07 0 0 0 34.944 23.449l1.587-2.381 20.224-35.097a35.475 35.475 0 0 0-28.16-14.234h.256Zm140.391-156.851a49.77 49.77 0 0 0-15.028 28.16 61.441 61.441 0 0 0 7.68 43.238l77.824 134.81a21.172 21.172 0 0 0 27.418 8.243 21.071 21.071 0 0 0 10.24-26.726l-1.254-2.56-20.48-35.61h30.464a21.068 21.068 0 0 0 2.56-41.958l-2.56-.154h-54.784l-56.167-97.28-5.862-10.24-.051.077ZM109.056 277.76a20.911 20.911 0 0 0-14.793 6.18 20.913 20.913 0 0 0-6.071 14.838c0 10.598 7.885 19.558 18.406 20.915l2.56.128h191.488a29.698 29.698 0 0 0-.435-27.315 26.468 26.468 0 0 0-20.301-14.618l-3.097-.154h-65.306l90.317-156.39a21.197 21.197 0 0 0 2.099-16 21.087 21.087 0 0 0-16.221-15.19 21.096 21.096 0 0 0-20.822 7.766l-1.587 2.355L256 116.506l-9.19-16.231a21.173 21.173 0 0 0-27.444-8.243 21.121 21.121 0 0 0-10.24 26.752l1.255 2.56 21.248 37.376-68.736 119.04h-53.837Z" fill="url(#app-store)"/>
    <defs>
        <linearGradient id="app-store" x1="256" y1="0" x2="256" y2="512" gradientUnits="userSpaceOnUse">
            <stop stop-color="#17C7FB"/>
            <stop offset="1" stop-color="#1A77E9"/>
        </linearGradient>
    </defs>
</svg>
