<svg width="512" height="512" viewBox="0 0 512 512" fill="none" xmlns="http://www.w3.org/2000/svg">
    <path d="M256 512c141.389 0 256-114.611 256-256S397.389 0 256 0 0 114.611 0 256s114.611 256 256 256Z" fill="#ECE5DD"/>
    <path d="M256 512c141.389 0 256-114.611 256-256S397.389 0 256 0 0 114.611 0 256s114.611 256 256 256Z" fill="#ECE5DD"/>
    <path d="M512 256a255.206 255.206 0 0 0-76.288-182.298L289.395 189.209l-44.531 11.136-144.691-100.172-37.146-12.378a253.008 253.008 0 0 0-14.067 17.651l320.192 380.237C453.786 443.904 512 356.762 512 256Z" fill="#ECE5DD"/>
    <path d="M512 256c0-56.691-18.445-109.069-49.638-151.488L444.659 118.4v310.63A255.053 255.053 0 0 0 512 256Z" fill="#AC2201"/>
    <path d="M416.128 56.269 262.323 172.608a10.483 10.483 0 0 1-12.646 0L95.872 56.269a258.163 258.163 0 0 0-46.899 49.139l200.55 157.35a10.496 10.496 0 0 0 12.954 0l200.55-157.35a258.163 258.163 0 0 0-46.899-49.139Z" fill="#CD2900"/>
    <path d="M67.341 429.03V118.4l-17.703-13.888A254.822 254.822 0 0 0 0 256c0 66.714 25.523 127.462 67.341 173.03Z" fill="#AC2201"/>
</svg>
