<svg width="512" height="512" viewBox="0 0 512 512" fill="none" xmlns="http://www.w3.org/2000/svg">
    <g clip-path="url(#a)">
        <path
            d="M359.947 177.36a44.17 44.17 0 0 0-25.334-25.307 73.764 73.764 0 0 0-24.746-4.586c-14.054-.64-18.267-.8-53.867-.8-35.6 0-39.813.16-53.867.8a73.75 73.75 0 0 0-24.773 4.586 44.17 44.17 0 0 0-25.307 25.334 73.769 73.769 0 0 0-4.586 24.746c-.64 14.054-.8 18.267-.8 53.867 0 35.6.16 39.813.8 53.867a73.775 73.775 0 0 0 4.586 24.773 44.17 44.17 0 0 0 25.334 25.307 73.769 73.769 0 0 0 24.746 4.586c14.054.64 18.267.774 53.867.774 35.6 0 39.813-.134 53.867-.8a73.781 73.781 0 0 0 24.773-4.56 44.17 44.17 0 0 0 25.307-25.334 73.744 73.744 0 0 0 4.586-24.746c.64-14.054.774-18.267.774-53.867 0-35.6-.134-39.813-.8-53.867a73.781 73.781 0 0 0-4.56-24.773ZM256 324.48a68.475 68.475 0 0 1-63.267-42.274 68.483 68.483 0 0 1 14.844-74.629 68.485 68.485 0 0 1 74.629-14.844A68.479 68.479 0 0 1 256 324.48Zm71.173-123.653a16.004 16.004 0 0 1-14.782-9.877 16.005 16.005 0 0 1 3.469-17.437 15.99 15.99 0 0 1 17.436-3.468 15.993 15.993 0 0 1 9.877 14.782 15.998 15.998 0 0 1-16 16ZM300.453 256a44.457 44.457 0 0 1-27.441 41.07 44.46 44.46 0 0 1-48.445-9.637 44.448 44.448 0 0 1-9.636-48.445A44.457 44.457 0 0 1 256 211.547 44.45 44.45 0 0 1 300.453 256ZM256 0a256 256 0 1 0 0 512 256 256 0 0 0 0-512Zm132.533 310.96a97.834 97.834 0 0 1-6.213 32.373 68.174 68.174 0 0 1-15.375 23.612 68.174 68.174 0 0 1-23.612 15.375 97.83 97.83 0 0 1-32.346 6.213c-14.24.64-18.774.8-54.987.8s-40.747-.16-54.987-.8a97.84 97.84 0 0 1-32.346-6.213 68.174 68.174 0 0 1-23.612-15.375 68.174 68.174 0 0 1-15.375-23.612 97.86 97.86 0 0 1-6.213-32.346c-.64-14.24-.8-18.774-.8-54.987s.16-40.747.8-54.987a97.871 97.871 0 0 1 6.186-32.346 68.167 68.167 0 0 1 39.014-39.014 97.871 97.871 0 0 1 32.346-6.186c14.24-.64 18.774-.8 54.987-.8s40.747.16 54.987.8a97.871 97.871 0 0 1 32.346 6.186 68.153 68.153 0 0 1 38.987 39.014 97.835 97.835 0 0 1 6.213 32.346c.64 14.24.8 18.774.8 54.987s-.16 40.747-.8 54.987v-.027Z"
            fill="url(#b)"/>
    </g>
    <defs>
        <linearGradient id="b" x1="435.2" y1="76.8" x2="70.4" y2="422.4" gradientUnits="userSpaceOnUse">
            <stop stop-color="#9000DC"/>
            <stop offset=".458" stop-color="#FC2082" stop-opacity=".83"/>
            <stop offset=".703" stop-color="#FE7E4C"/>
            <stop offset="1" stop-color="#FECF1D"/>
        </linearGradient>
        <clipPath id="a">
            <path fill="#fff" d="M0 0h512v512H0z"/>
        </clipPath>
    </defs>
</svg>
