<svg width="512" height="512" viewBox="0 0 512 512" fill="none" xmlns="http://www.w3.org/2000/svg">
    <path fill-rule="evenodd" clip-rule="evenodd"
          d="M256 512c141.385 0 256-114.615 256-256S397.385 0 256 0 0 114.615 0 256s114.615 256 256 256Z"
          fill="#FF0002"/>
    <path fill-rule="evenodd" clip-rule="evenodd"
          d="m220.757 300.586-.01-96.584 92.224 48.459-92.214 48.125Zm202.496-113.321s-3.338-23.686-13.568-34.117c-12.981-13.697-27.53-13.761-34.197-14.556-47.765-3.481-119.413-3.481-119.413-3.481h-.15s-71.648 0-119.413 3.481c-6.677.795-21.216.859-34.208 14.556-10.23 10.431-13.557 34.117-13.557 34.117s-3.414 27.823-3.414 55.635v26.082c0 27.823 3.414 55.635 3.414 55.635s3.328 23.687 13.557 34.118c12.992 13.696 30.048 13.266 37.643 14.695C167.253 376.073 256 376.889 256 376.889s71.723-.107 119.488-3.588c6.667-.806 21.216-.87 34.197-14.566 10.23-10.431 13.568-34.118 13.568-34.118s3.414-27.812 3.414-55.635V242.9c0-27.812-3.414-55.635-3.414-55.635Z"
          fill="#fff"/>
</svg>
