<svg width="512" height="512" viewBox="0 0 512 512" fill="none" xmlns="http://www.w3.org/2000/svg">
    <path d="M256 511.994c141.385 0 256-114.615 256-256s-114.615-256-256-256S0 114.61 0 255.994s114.615 256 256 256Z"
          fill="#007AB9"/>
    <path
        d="M408.957 276.595v105.543h-61.191v-98.47c0-24.725-8.835-41.61-30.99-41.61-16.908 0-26.952 11.368-31.387 22.375-1.611 3.934-2.027 9.396-2.027 14.913v102.787h-61.195s.821-166.775 0-184.039h61.2v26.08c-.123.206-.297.406-.406.603h.406v-.603c8.132-12.513 22.635-30.401 55.149-30.401 40.259 0 70.441 26.303 70.441 82.822ZM158.151 109.381c-20.933 0-34.628 13.74-34.628 31.793 0 17.67 13.298 31.808 33.825 31.808h.397c21.343 0 34.613-14.138 34.613-31.808-.406-18.053-13.27-31.793-34.207-31.793ZM127.16 382.138h61.173V198.094H127.16v184.044Z"
        fill="#fff"/>
</svg>
