<svg width="512" height="512" viewBox="0 0 512 512" fill="none" xmlns="http://www.w3.org/2000/svg">
    <path
        d="M256.001 512.001c141.382 0 255.995-114.613 255.995-255.996C511.996 114.623 397.383.01 256.001.01 114.618.01.005 114.623.005 256.005c0 141.383 114.613 255.996 255.996 255.996Z"
        fill="#CB2027"/>
    <path
        d="M276.663 342.808c-19.353-1.497-27.485-11.094-42.663-20.307-8.342 43.767-18.536 85.723-48.732 107.641-9.332-66.151 13.681-115.837 24.368-168.576-18.217-30.665 2.191-92.389 40.614-77.18 47.29 18.701-40.942 114.025 18.29 125.931 61.838 12.43 87.083-107.299 48.732-146.242-55.408-56.225-161.283-1.278-148.263 79.211 3.171 19.677 23.506 25.65 8.122 52.802-35.461-7.853-46.039-35.822-44.679-73.109 2.195-61.035 54.842-103.771 107.649-109.685 66.785-7.475 129.467 24.523 138.119 87.342 9.734 70.901-30.15 147.684-101.557 142.172Z"
        fill="#F1F2F2"/>
</svg>
