<?xml version="1.0" encoding="UTF-8"?>
<svg version="1.1" xmlns="http://www.w3.org/2000/svg" width="1024" height="1024">
<path d="M0 0 C1.85310791 0.63869019 1.85310791 0.63869019 3.74365234 1.2902832 C4.85111816 1.67740479 5.95858398 2.06452637 7.09960938 2.46337891 C9.85829917 3.447305 9.85829917 3.447305 12.86083984 3.30200195 C12.86083984 3.96200195 12.86083984 4.62200195 12.86083984 5.30200195 C14.01583984 5.63200195 15.17083984 5.96200195 16.36083984 6.30200195 C23.88809889 8.81896612 30.85945835 12.60607385 37.86083984 16.30200195 C38.46089844 16.6179834 39.06095703 16.93396484 39.67919922 17.25952148 C55.04572007 25.45065845 68.81867461 35.82854471 81.86083984 47.30200195 C82.60720703 47.93750977 83.35357422 48.57301758 84.12255859 49.2277832 C119.8677883 79.77626045 141.5437189 124.13923135 145.69311523 170.7956543 C147.74810423 201.50383045 142.80170618 231.02550414 130.86083984 259.30200195 C130.56967285 259.99712891 130.27850586 260.69225586 129.97851562 261.40844727 C118.03491081 289.85974783 99.23018493 315.16673374 78.27490234 337.67700195 C76.40709237 339.70801862 74.60964538 341.76437931 72.81787109 343.8605957 C68.28404641 349.05900739 63.40280578 353.9099481 58.51831055 358.77490234 C56.92625018 360.36160142 55.33960994 361.95357937 53.75341797 363.54614258 C48.83265193 368.47012584 43.87451258 373.30203981 38.57983398 377.828125 C36.00077819 380.0394245 33.5342164 382.36148617 31.04833984 384.67700195 C26.37577155 388.99922041 21.54465361 393.05775462 16.58349609 397.0480957 C13.71443399 399.42320164 10.97382181 401.90227032 8.23583984 404.42700195 C5.07858415 407.33453121 1.91600388 410.0981195 -1.51416016 412.67700195 C-7.20100029 417.00306248 -12.36722946 421.87653163 -17.54443359 426.79077148 C-19.00756139 428.17729339 -20.4829383 429.55085948 -21.95947266 430.9230957 C-34.76637679 443.1886001 -44.82765313 457.69472202 -53.13916016 473.30200195 C-53.52023926 474.01485352 -53.90131836 474.72770508 -54.29394531 475.4621582 C-67.62824645 500.86948445 -74.9728743 529.08835652 -77.9765625 557.5300293 C-78.7583497 564.06325602 -80.65472852 568.26928516 -85.88916016 572.55200195 C-100.07737284 580.19180878 -121.85305693 578.70960935 -137.13916016 575.30200195 C-142.78653011 573.54630098 -147.0703001 571.58044124 -150.13916016 566.30200195 C-152.05462958 560.80543753 -152.48788429 555.91255797 -152.45166016 550.11450195 C-152.4489209 549.1925 -152.44618164 548.27049805 -152.44335938 547.32055664 C-152.15909188 526.93825083 -149.91645453 506.39388189 -147.47119141 486.16918945 C-147.10081514 483.45193959 -147.10081514 483.45193959 -147.13916016 481.30200195 C-146.47916016 481.30200195 -145.81916016 481.30200195 -145.13916016 481.30200195 C-145.09742676 480.71136963 -145.05569336 480.1207373 -145.01269531 479.51220703 C-144.45223694 472.81479484 -143.18063427 466.49329835 -141.51416016 459.98950195 C-141.24837158 458.94624756 -140.98258301 457.90299316 -140.70874023 456.828125 C-132.71725 426.14796392 -120.17858121 396.46827331 -102.13916016 370.30200195 C-101.70555176 369.66939453 -101.27194336 369.03678711 -100.82519531 368.38500977 C-94.10908995 358.62688981 -87.07616186 349.12173122 -79.86328125 339.7253418 C-78.94023193 338.51225342 -78.94023193 338.51225342 -77.99853516 337.2746582 C-77.44649414 336.55544189 -76.89445312 335.83622559 -76.32568359 335.09521484 C-74.95522194 333.38238319 -74.95522194 333.38238319 -75.13916016 331.30200195 C-74.14916016 331.30200195 -73.15916016 331.30200195 -72.13916016 331.30200195 C-71.7395105 330.43828979 -71.7395105 330.43828979 -71.33178711 329.55712891 C-70.09524699 327.21896696 -68.69614887 325.29379804 -67.05712891 323.2199707 C-66.45449219 322.45233398 -65.85185547 321.68469727 -65.23095703 320.89379883 C-64.60253906 320.10038086 -63.97412109 319.30696289 -63.32666016 318.48950195 C-55.14084546 309.21813027 -55.14084546 309.21813027 -50.13916016 298.30200195 C-49.47916016 298.63200195 -48.81916016 298.96200195 -48.13916016 299.30200195 C-47.87876953 298.57625977 -47.61837891 297.85051758 -47.35009766 297.1027832 C-46.10404007 294.22077258 -44.62823252 292.00884866 -42.76416016 289.48950195 C-39.71264678 285.23645519 -37.34112207 281.04468915 -35.13916016 276.30200195 C-34.13916016 274.30200195 -34.13916016 274.30200195 -32.71411133 272.43579102 C-21.58261281 257.35451726 -10.54602589 230.28229854 -11.13916016 211.30200195 C-10.80916016 210.97200195 -10.47916016 210.64200195 -10.13916016 210.30200195 C-9.87442396 207.83701382 -9.67038919 205.3990966 -9.51416016 202.92700195 C-9.43681641 201.89833008 -9.43681641 201.89833008 -9.35791016 200.84887695 C-9.14644146 197.65196789 -9.11562875 195.37259617 -10.13916016 192.30200195 C-9.47916016 191.97200195 -8.81916016 191.64200195 -8.13916016 191.30200195 C-8.51060954 167.77260459 -11.33809276 144.1808135 -23.13916016 123.30200195 C-25.21606594 122.34156093 -25.21606594 122.34156093 -27.13916016 122.30200195 C-26.93291016 121.74512695 -26.72666016 121.18825195 -26.51416016 120.61450195 C-26.03220805 117.64246395 -26.87350988 115.98220254 -28.13916016 113.30200195 C-28.79916016 113.30200195 -29.45916016 113.30200195 -30.13916016 113.30200195 C-30.68056641 112.29008789 -31.22197266 111.27817383 -31.77978516 110.2355957 C-34.07628416 106.22277649 -36.84333784 102.82792394 -39.88916016 99.36450195 C-40.42645752 98.7504248 -40.96375488 98.13634766 -41.51733398 97.50366211 C-43.05030207 95.76281443 -44.59418345 94.03218427 -46.13916016 92.30200195 C-46.78755859 91.55563477 -47.43595703 90.80926758 -48.10400391 90.0402832 C-68.36582876 68.12443183 -99.89959497 56.54003765 -129.13916016 55.0559082 C-151.34361835 54.65603978 -176.77643499 58.285591 -194.13916016 73.30200195 C-194.79916016 73.96200195 -195.45916016 74.62200195 -196.13916016 75.30200195 C-197.14978516 76.04450195 -198.16041016 76.78700195 -199.20166016 77.55200195 C-207.57885434 84.71993589 -213.23476074 95.82369908 -216.13916016 106.30200195 C-216.36216797 107.05094727 -216.58517578 107.79989258 -216.81494141 108.5715332 C-221.61806212 127.75134175 -216.96486982 146.63422997 -207.13916016 163.30200195 C-205.00097241 166.68923007 -202.79340546 170.02830661 -200.57666016 173.36450195 C-187.69357854 192.81264562 -181.98387451 210.23635728 -185.63916016 233.48168945 C-189.59558682 252.12635012 -201.7580166 267.80724713 -217.28759766 278.4621582 C-235.29225365 289.78893278 -258.13504613 293.38507112 -278.94433594 289.22558594 C-292.70726752 285.9934561 -305.22966951 280.35925821 -316.13916016 271.30200195 C-316.96673828 270.62524414 -317.79431641 269.94848633 -318.64697266 269.2512207 C-326.1447273 262.82289501 -333.72640896 255.09631333 -338.76806641 246.53637695 C-340.08991536 244.03217869 -340.08991536 244.03217869 -343.13916016 242.30200195 C-344.13916016 241.30200195 -344.13916016 241.30200195 -344.51416016 239.30200195 C-345.37268183 235.18109794 -346.76287417 231.27505396 -348.13916016 227.30200195 C-349.12916016 227.30200195 -350.11916016 227.30200195 -351.13916016 227.30200195 C-351.22166016 226.29137695 -351.30416016 225.28075195 -351.38916016 224.23950195 C-351.89100834 220.10834588 -352.94591453 216.24124856 -354.07666016 212.23950195 C-362.22603092 182.58403001 -359.54905803 147.24881148 -346.83837891 119.11450195 C-345.95919912 117.15929324 -345.95919912 117.15929324 -346.13916016 114.30200195 C-345.47916016 114.30200195 -344.81916016 114.30200195 -344.13916016 114.30200195 C-343.89166016 113.47700195 -343.64416016 112.65200195 -343.38916016 111.80200195 C-338.88629654 99.19398383 -331.26898957 87.83661566 -323.13916016 77.30200195 C-322.44435547 76.39450195 -321.74955078 75.48700195 -321.03369141 74.55200195 C-277.46055627 19.61551638 -213.5793658 -8.25745786 -145.05249023 -16.6315918 C-141.08727866 -17.07155979 -137.1174408 -17.40174311 -133.13916016 -17.69799805 C-132.25196289 -17.76647949 -131.36476563 -17.83496094 -130.45068359 -17.90551758 C-86.20363492 -21.08572631 -41.80532676 -14.46899566 0 0 Z " fill="#186E30" transform="translate(611.13916015625,124.697998046875)"/>
<path d="M0 0 C3.17978379 1.61008217 6.3106881 3.27766938 9.42724609 5.00830078 C10.38244141 5.52263672 11.33763672 6.03697266 12.32177734 6.56689453 C14.42724609 8.00830078 14.42724609 8.00830078 15.42724609 11.00830078 C16.73950869 11.71554126 18.07619948 12.37830454 19.42724609 13.00830078 C29.90143521 21.60250724 35.8921652 33.94182443 41.42724609 46.00830078 C41.79076172 46.79849609 42.15427734 47.58869141 42.52880859 48.40283203 C49.36890843 65.91763313 47.54761675 89.09988775 40.5859375 106.05761719 C36.67739184 114.9550015 32.03427099 122.8183031 25.42724609 130.00830078 C24.79044922 130.71341797 24.15365234 131.41853516 23.49755859 132.14501953 C9.34594134 147.06389315 -11.02484158 156.31000811 -31.55322266 157.17626953 C-46.78747436 157.34529924 -59.37458173 154.35784906 -73.57275391 149.00830078 C-73.90275391 149.66830078 -74.23275391 150.32830078 -74.57275391 151.00830078 C-75.23275391 151.00830078 -75.89275391 151.00830078 -76.57275391 151.00830078 C-76.57275391 149.68830078 -76.57275391 148.36830078 -76.57275391 147.00830078 C-78.93099659 144.83682707 -78.93099659 144.83682707 -82.01025391 142.82080078 C-98.67025547 130.94891959 -110.13010849 114.13087119 -114.57275391 94.00830078 C-114.63277305 92.00920156 -114.65030747 90.00679658 -114.57275391 88.00830078 C-115.23275391 87.67830078 -115.89275391 87.34830078 -116.57275391 87.00830078 C-117.80723721 64.1879951 -114.23880038 46.67743982 -102.57275391 27.00830078 C-102.22341797 26.28384766 -101.87408203 25.55939453 -101.51416016 24.81298828 C-100.06718067 22.03911059 -97.80237263 20.18724635 -95.57275391 18.00830078 C-94.05831162 16.20965725 -92.56943592 14.39473732 -91.10009766 12.55908203 C-89.37597356 10.80850079 -87.78347788 10.06024379 -85.57275391 9.00830078 C-84.03863967 7.922662 -82.5188231 6.8166652 -81.01025391 5.69580078 C-75.80222062 2.01188312 -70.47910122 -0.61689192 -64.57275391 -2.99169922 C-63.86892578 -3.28947266 -63.16509766 -3.58724609 -62.43994141 -3.89404297 C-56.17376377 -6.2885329 -49.67216012 -6.85319364 -43.04931641 -7.56201172 C-28.55521309 -9.35341775 -13.37913868 -6.49912431 0 0 Z " fill="#196D30" transform="translate(532.57275390625,760.99169921875)"/>
<path d="M0 0 C2.89147215 2.68318814 4.75423549 5.09989859 6.5 8.625 C9.78313153 14.87978648 13.68445074 20.64351092 17.68554688 26.45361328 C26.77658375 39.78733004 26.77658375 39.78733004 26 46 C24.33572395 43.50358592 22.99692416 41.09404405 21.625 38.4375 C18.73830589 33.07649665 15.42561601 28.09272455 12 23.0625 C0 5.38343452 0 5.38343452 0 0 Z " fill="#21632A" transform="translate(395,275)"/>
<path d="M0 0 C0.33 0 0.66 0 1 0 C1.02495303 4.25007753 1.0429783 8.50011481 1.05493164 12.75024414 C1.05992148 14.192309 1.06671573 15.63436891 1.07543945 17.07641602 C1.1208459 24.78215673 1.08531842 32.35149621 0 40 C-0.33 40 -0.66 40 -1 40 C-2.16154829 33.52320673 -2.18364324 27.13056241 -2.1875 20.5625 C-2.19974609 19.46873047 -2.21199219 18.37496094 -2.22460938 17.24804688 C-2.23565457 11.13269264 -1.7991039 5.85242099 0 0 Z " fill="#145F25" transform="translate(463,627)"/>
<path d="M0 0 C-0.1875 2.3125 -0.1875 2.3125 -1 5 C-3.25 6.5625 -3.25 6.5625 -6 8 C-6.886875 8.721875 -7.77375 9.44375 -8.6875 10.1875 C-11 12 -11 12 -13 12 C-13.226875 12.9075 -13.45375 13.815 -13.6875 14.75 C-15.18127977 18.44888324 -16.75400577 19.77905658 -20 22 C-20 17.49086162 -20 17.49086162 -17.4375 14.6875 C-16.8909375 14.08679688 -16.344375 13.48609375 -15.78125 12.8671875 C-3.50627615 0 -3.50627615 0 0 0 Z " fill="#22662F" transform="translate(324,166)"/>
<path d="M0 0 C3.87934049 1.61639187 6.71496806 4.23536678 9.75 7.0625 C10.53745605 7.7891687 10.53745605 7.7891687 11.34082031 8.53051758 C15.86320341 12.75901492 20.01866306 17.25752511 24 22 C23.67 22.99 23.34 23.98 23 25 C22.61779297 24.58226318 22.23558594 24.16452637 21.84179688 23.73413086 C12.60340794 13.49256732 12.60340794 13.49256732 2.35546875 4.296875 C1 3 1 3 0 0 Z " fill="#1F6129" transform="translate(551,202)"/>
<path d="M0 0 C1.5 1.3125 1.5 1.3125 3 3 C3 3.99 3 4.98 3 6 C2.34 6 1.68 6 1 6 C0.93941406 6.7734375 0.87882812 7.546875 0.81640625 8.34375 C0.34107401 14.25249543 -0.20914557 20.12508141 -1 26 C-1.66 26 -2.32 26 -3 26 C-3 27.98 -3 29.96 -3 32 C-3.33 32 -3.66 32 -4 32 C-3.36563285 22.99738533 -2.70246743 13.9975615 -2 5 C-1.34 5 -0.68 5 0 5 C0 3.35 0 1.7 0 0 Z " fill="#2B6A35" transform="translate(466,601)"/>
<path d="M0 0 C0.33 0 0.66 0 1 0 C1.81987194 6.435344 2.15445049 12.7034827 2.125 19.1875 C2.12886719 20.05052734 2.13273438 20.91355469 2.13671875 21.80273438 C2.12981263 26.31588561 1.9158496 30.55885629 1 35 C0.67 35 0.34 35 0 35 C-0.89648376 23.2077906 -0.96991135 11.78815329 0 0 Z " fill="#094C13" transform="translate(604,293)"/>
<path d="M0 0 C-10.44048155 5.10917182 -21.65320126 4.11724591 -33 4 C-33 3.67 -33 3.34 -33 3 C-26.565 2.505 -26.565 2.505 -20 2 C-20 1.67 -20 1.34 -20 1 C-19.10796875 0.93941406 -18.2159375 0.87882813 -17.296875 0.81640625 C-15.54117187 0.69072266 -15.54117187 0.69072266 -13.75 0.5625 C-12.58984375 0.48128906 -11.4296875 0.40007813 -10.234375 0.31640625 C-7.13958478 0.10242623 -7.13958478 0.10242623 -4.765625 -0.59765625 C-3 -1 -3 -1 0 0 Z " fill="#33703B" transform="translate(521,698)"/>
<path d="M0 0 C0.66 0 1.32 0 2 0 C1.14121892 9.01720132 0.07462534 18.00653358 -1 27 C-1.33 27 -1.66 27 -2 27 C-3.76595745 8.65957447 -3.76595745 8.65957447 0 0 Z " fill="#225F2B" transform="translate(419,812)"/>
<path d="M0 0 C0.33 0.66 0.66 1.32 1 2 C1.99 2 2.98 2 4 2 C5.61542597 5.66163221 6.39927526 9.05238027 7 13 C7.33 13.99 7.66 14.98 8 16 C7.34 16.66 6.68 17.32 6 18 C5.67 16.68 5.34 15.36 5 14 C4.01 14 3.02 14 2 14 C1.855625 12.80375 1.71125 11.6075 1.5625 10.375 C1.12960657 6.8994842 0.60383744 3.45049966 0 0 Z " fill="#2A6E37" transform="translate(258,338)"/>
<path d="M0 0 C7.92 0 15.84 0 24 0 C24 0.33 24 0.66 24 1 C19.545 1.495 19.545 1.495 15 2 C15 2.33 15 2.66 15 3 C8.62694402 3.74507544 2.41688675 4.10349817 -4 4 C-4 3.67 -4 3.34 -4 3 C-2.35 2.67 -0.7 2.34 1 2 C0.67 1.34 0.34 0.68 0 0 Z " fill="#2A783C" transform="translate(466,176)"/>
<path d="M0 0 C0.66 0 1.32 0 2 0 C0.53171057 5.17935061 -1.81491263 9.34373412 -4.625 13.875 C-5.04523437 14.56335938 -5.46546875 15.25171875 -5.8984375 15.9609375 C-6.92692472 17.64391658 -7.962721 19.32242532 -9 21 C-10.12011719 17.28613281 -10.12011719 17.28613281 -9.0390625 14.7109375 C-8.57242188 13.94007813 -8.10578125 13.16921875 -7.625 12.375 C-6.93277344 11.21097656 -6.93277344 11.21097656 -6.2265625 10.0234375 C-5.82179688 9.35570312 -5.41703125 8.68796875 -5 8 C-4.67 7.34 -4.34 6.68 -4 6 C-3 4.66666667 -2 3.33333333 -1 2 C-0.67 1.34 -0.34 0.68 0 0 Z " fill="#21612B" transform="translate(581,393)"/>
<path d="M0 0 C0.52078125 0.68449219 1.0415625 1.36898437 1.578125 2.07421875 C4.44448847 5.53697075 7.55139598 8.65959032 10.75 11.8125 C11.35199219 12.40998047 11.95398438 13.00746094 12.57421875 13.62304688 C14.04719723 15.08433504 15.52328354 16.54248939 17 18 C16.01 18.33 15.02 18.66 14 19 C2.76275116 8.14876352 2.76275116 8.14876352 0 3 C0 2.01 0 1.02 0 0 Z " fill="#1D5C26" transform="translate(431,881)"/>
<path d="M0 0 C0.33 0 0.66 0 1 0 C1.19594676 3.14536768 1.3803401 6.29130614 1.5625 9.4375 C1.61857422 10.33533203 1.67464844 11.23316406 1.73242188 12.15820312 C1.78076172 13.01220703 1.82910156 13.86621094 1.87890625 14.74609375 C1.9260376 15.53685303 1.97316895 16.3276123 2.02172852 17.14233398 C2 19 2 19 1 20 C0.84417697 21.34015221 0.74955858 22.68758903 0.68359375 24.03515625 C0.62075195 25.24848633 0.62075195 25.24848633 0.55664062 26.48632812 C0.51732422 27.33646484 0.47800781 28.18660156 0.4375 29.0625 C0.39431641 29.91650391 0.35113281 30.77050781 0.30664062 31.65039062 C0.20023298 33.76672037 0.09958269 35.88333813 0 38 C-0.33 38 -0.66 38 -1 38 C-1.11427673 25.28539548 -1.01726146 12.67943749 0 0 Z " fill="#4A8452" transform="translate(460,646)"/>
<path d="M0 0 C1 3 1 3 -0.3984375 6.21484375 C-1.04741062 7.46092534 -1.70670879 8.70167141 -2.375 9.9375 C-5.28714296 15.23691087 -5.28714296 15.23691087 -7 21 C-7.66 21 -8.32 21 -9 21 C-9.33 21.99 -9.66 22.98 -10 24 C-9.50631757 18.12209351 -7.73352993 13.81488375 -5 8.625 C-4.63132812 7.90183594 -4.26265625 7.17867187 -3.8828125 6.43359375 C-1.18430261 1.18430261 -1.18430261 1.18430261 0 0 Z " fill="#1E6127" transform="translate(402,210)"/>
<path d="M0 0 C2.92758102 4.39137153 3.1826389 7.27014725 3.1875 12.4375 C3.19974609 13.11876953 3.21199219 13.80003906 3.22460938 14.50195312 C3.23555848 18.22829809 3.12005619 19.81991571 1 23 C0.67 15.41 0.34 7.82 0 0 Z " fill="#155520" transform="translate(575,817)"/>
<path d="M0 0 C0 0.33 0 0.66 0 1 C-19.00455581 2.33257403 -19.00455581 2.33257403 -27 1 C-27 0.67 -27 0.34 -27 0 C-17.51332023 -2.04861856 -9.51176812 -1.85386785 0 0 Z " fill="#3F7C47" transform="translate(510,754)"/>
<path d="M0 0 C4.62675657 1.3922459 8.64686231 3.29520984 12.875 5.625 C14.02742187 6.25664062 15.17984375 6.88828125 16.3671875 7.5390625 C17.67042969 8.26222656 17.67042969 8.26222656 19 9 C17.44921875 9.703125 17.44921875 9.703125 15 10 C12.46888805 9.01648222 10.20361548 7.99817696 7.8125 6.75 C6.85053711 6.28013672 6.85053711 6.28013672 5.86914062 5.80078125 C1.1294676 3.38840279 1.1294676 3.38840279 0 0 Z " fill="#1F6129" transform="translate(525,187)"/>
<path d="M0 0 C0.33 0 0.66 0 1 0 C1.02716824 2.54173977 1.04691969 5.08318415 1.0625 7.625 C1.07087891 8.33785156 1.07925781 9.05070312 1.08789062 9.78515625 C1.10710296 13.97344438 0.8267327 17.8728462 0 22 C-0.66 22 -1.32 22 -2 22 C-2.10541952 16.93327435 -1.72702304 12.0681519 -1 7.0625 C-0.90460937 6.37865234 -0.80921875 5.69480469 -0.7109375 4.99023438 C-0.47820863 3.32622293 -0.23971452 1.66301947 0 0 Z " fill="#1A5923" transform="translate(754,324)"/>
<path d="M0 0 C1.48828125 1.01953125 1.48828125 1.01953125 3 3 C3.2172101 5.64996326 3.28351554 8.05076558 3.1875 10.6875 C3.17396484 11.38939453 3.16042969 12.09128906 3.14648438 12.81445312 C3.11120182 14.54329829 3.05739583 16.27174765 3 18 C0.06552643 15.06552643 0.53841577 11.81740544 0.375 7.875 C0.33632813 7.12089844 0.29765625 6.36679687 0.2578125 5.58984375 C0.16348969 3.72696816 0.08065338 1.86351745 0 0 Z " fill="#155720" transform="translate(423,328)"/>
<path d="M0 0 C0.33 0 0.66 0 1 0 C1.05428973 2.22889496 1.09292338 4.45817471 1.125 6.6875 C1.14820313 7.92886719 1.17140625 9.17023437 1.1953125 10.44921875 C1.01032021 13.81237857 0.45767895 15.9985587 -1 19 C-1.33 19 -1.66 19 -2 19 C-2.24794402 12.4294834 -1.32388229 6.43028541 0 0 Z " fill="#15551E" transform="translate(532,669)"/>
<path d="M0 0 C2.64 0 5.28 0 8 0 C8 0.66 8 1.32 8 2 C10.31 2.66 12.62 3.32 15 4 C14.67 4.99 14.34 5.98 14 7 C9.38 5.02 4.76 3.04 0 1 C0 0.67 0 0.34 0 0 Z " fill="#23642C" transform="translate(616,128)"/>
<path d="M0 0 C1.72251754 4.0845326 0.07280563 7.36973696 -1.4375 11.25 C-1.68048828 11.8996875 -1.92347656 12.549375 -2.17382812 13.21875 C-2.77285994 14.81616817 -3.38514321 16.40860594 -4 18 C-4.33 18 -4.66 18 -5 18 C-4.56699236 11.18012971 -3.09212176 6.08356979 0 0 Z " fill="#25632D" transform="translate(549,610)"/>
<path d="M0 0 C0.33 0.66 0.66 1.32 1 2 C-0.8130666 6.63339243 -2.94775971 9.1524798 -7 12 C-7 7.65618436 -6.80997583 7.2927032 -4.0625 4.3125 C-3.51722656 3.71050781 -2.97195313 3.10851562 -2.41015625 2.48828125 C-1.61594299 1.65006725 -0.81651008 0.81651008 0 0 Z " fill="#287039" transform="translate(311,176)"/>
<path d="M0 0 C2.91517292 1.07401108 4.77810176 1.77810176 7 4 C6.67 4.33 6.34 4.66 6 5 C7.32 6.32 8.64 7.64 10 9 C5.89041233 7.54955729 2.56741255 5.48889248 -1 3 C-0.67 2.01 -0.34 1.02 0 0 Z " fill="#247439" transform="translate(535,763)"/>
<path d="M0 0 C0.33 0 0.66 0 1 0 C1.054348 2.0622048 1.09294961 4.12482816 1.125 6.1875 C1.14820313 7.33605469 1.17140625 8.48460937 1.1953125 9.66796875 C1.00313312 12.94654899 0.51407144 15.10420602 -1 18 C-1.66 18.33 -2.32 18.66 -3 19 C-2.86722656 18.29875 -2.73445313 17.5975 -2.59765625 16.875 C-1.55238798 11.2595442 -0.6425281 5.67566491 0 0 Z " fill="#185821" transform="translate(424,347)"/>
<path d="M0 0 C2.48982535 2.27745789 4.10368997 4.62335238 5.75 7.5625 C6.19859375 8.34753906 6.6471875 9.13257813 7.109375 9.94140625 C7.40328125 10.62074219 7.6971875 11.30007812 8 12 C7.67 12.66 7.34 13.32 7 14 C3.6985981 11.19380839 1.94330317 7.81959588 0 4 C0 2.68 0 1.36 0 0 Z " fill="#276731" transform="translate(731,218)"/>
<path d="M0 0 C0.68359375 1.671875 0.68359375 1.671875 1 4 C-0.21484375 6.578125 -0.21484375 6.578125 -1.9375 9.25 C-2.50339844 10.14203125 -3.06929688 11.0340625 -3.65234375 11.953125 C-4.09707031 12.62859375 -4.54179687 13.3040625 -5 14 C-5.68359375 12.328125 -5.68359375 12.328125 -6 10 C-4.78515625 7.421875 -4.78515625 7.421875 -3.0625 4.75 C-2.49660156 3.85796875 -1.93070312 2.9659375 -1.34765625 2.046875 C-0.90292969 1.37140625 -0.45820313 0.6959375 0 0 Z " fill="#24612B" transform="translate(279,215)"/>
<path d="M0 0 C5.44208234 0.34013015 8.93668198 3.70296528 13 7 C12.67 7.66 12.34 8.32 12 9 C9.997193 7.69161864 7.99773901 6.37857806 6 5.0625 C5.42765625 4.68931641 4.8553125 4.31613281 4.265625 3.93164062 C2.82614271 2.98055411 1.41085511 1.99305724 0 1 C0 0.67 0 0.34 0 0 Z " fill="#1D5D25" transform="translate(661,150)"/>
<path d="M0 0 C2 1 2 1 2.921875 3.1796875 C3.19515625 4.06914062 3.4684375 4.95859375 3.75 5.875 C4.03359375 6.75929688 4.3171875 7.64359375 4.609375 8.5546875 C5 11 5 11 3 14 C-0.44419134 4.58997722 -0.44419134 4.58997722 0 0 Z " fill="#286730" transform="translate(595,259)"/>
<path d="M0 0 C4.29951803 1.59241408 6.39671947 4.35540725 9 8 C8.67 8.99 8.34 9.98 8 11 C6.66072279 9.54712339 5.32873153 8.08752741 4 6.625 C3.2575 5.81289062 2.515 5.00078125 1.75 4.1640625 C0 2 0 2 0 0 Z " fill="#1D5E27" transform="translate(710,191)"/>
<path d="M0 0 C1 3 1 3 -0.21484375 5.69921875 C-0.78332031 6.68535156 -1.35179687 7.67148437 -1.9375 8.6875 C-2.50339844 9.68136719 -3.06929687 10.67523437 -3.65234375 11.69921875 C-4.31943359 12.83810547 -4.31943359 12.83810547 -5 14 C-5.68359375 12.328125 -5.68359375 12.328125 -6 10 C-4.78515625 7.421875 -4.78515625 7.421875 -3.0625 4.75 C-2.49660156 3.85796875 -1.93070313 2.9659375 -1.34765625 2.046875 C-0.90292969 1.37140625 -0.45820312 0.6959375 0 0 Z " fill="#23622B" transform="translate(563,584)"/>
<path d="M0 0 C0.33 0.99 0.66 1.98 1 3 C-0.43359375 5.48046875 -0.43359375 5.48046875 -2.4375 8.1875 C-3.09621094 9.08855469 -3.75492188 9.98960937 -4.43359375 10.91796875 C-5.20896484 11.94857422 -5.20896484 11.94857422 -6 13 C-6.33 12.01 -6.66 11.02 -7 10 C-5.8203125 7.7734375 -5.8203125 7.7734375 -4.125 5.375 C-3.57070313 4.57835937 -3.01640625 3.78171875 -2.4453125 2.9609375 C-1 1 -1 1 0 0 Z " fill="#206028" transform="translate(573,570)"/>
<path d="M0 0 C1.31534494 3.65857532 0.65468309 6.08026481 -0.4375 9.75 C-0.86869141 11.22726562 -0.86869141 11.22726562 -1.30859375 12.734375 C-1.53675781 13.48203125 -1.76492188 14.2296875 -2 15 C-2.33 15 -2.66 15 -3 15 C-3.3152595 9.01006953 -2.68219822 5.36439644 0 0 Z " fill="#195A21" transform="translate(600,346)"/>
<path d="M0 0 C0.66 0 1.32 0 2 0 C1.67 3.63 1.34 7.26 1 11 C0.34 11 -0.32 11 -1 11 C-1.33 11.66 -1.66 12.32 -2 13 C-1.85966889 11.02043559 -1.7125877 9.04134859 -1.5625 7.0625 C-1.48128906 5.96035156 -1.40007813 4.85820312 -1.31640625 3.72265625 C-1 1 -1 1 0 0 Z " fill="#2D6C36" transform="translate(601,335)"/>
<path d="M0 0 C1 3 1 3 0.109375 4.7890625 C-0.33921875 5.39492187 -0.7878125 6.00078125 -1.25 6.625 C-1.68828125 7.23601562 -2.1265625 7.84703125 -2.578125 8.4765625 C-4 10 -4 10 -7 11 C-5.5140084 6.40693504 -3.14985318 3.56430755 0 0 Z " fill="#26642E" transform="translate(289,201)"/>
<path d="M0 0 C0 0.66 0 1.32 0 2 C-3.96 2.66 -7.92 3.32 -12 4 C-12 3.34 -12 2.68 -12 2 C-7.82262526 0.40861915 -4.46839215 -0.21278058 0 0 Z " fill="#23652C" transform="translate(454,180)"/>
<path d="M0 0 C1.60568666 0.28317926 3.20952047 0.57687791 4.8125 0.875 C6.15248047 1.11863281 6.15248047 1.11863281 7.51953125 1.3671875 C10 2 10 2 13 4 C9.95373824 4.95837449 7.90786364 5.01658162 4.8125 4.25 C4.11769531 4.09015625 3.42289063 3.9303125 2.70703125 3.765625 C2.14371094 3.51296875 1.58039062 3.2603125 1 3 C0.67 2.01 0.34 1.02 0 0 Z " fill="#2E7038" transform="translate(588,118)"/>
<path d="M0 0 C0.33 0.66 0.66 1.32 1 2 C0.0625 4.625 0.0625 4.625 -1 7 C-1.66 7 -2.32 7 -3 7 C-3 7.99 -3 8.98 -3 10 C-3.99 10.33 -4.98 10.66 -6 11 C-5.45276317 7.62537285 -4.9451 5.91765 -3 3 C-2.67 3.33 -2.34 3.66 -2 4 C-1.34 2.68 -0.68 1.36 0 0 Z " fill="#276F37" transform="translate(483,551)"/>
<path d="M0 0 C0.33 0.99 0.66 1.98 1 3 C-0.21484375 5.04296875 -0.21484375 5.04296875 -1.9375 7.1875 C-2.50339844 7.90292969 -3.06929687 8.61835938 -3.65234375 9.35546875 C-4.09707031 9.89816406 -4.54179688 10.44085938 -5 11 C-5.33 10.01 -5.66 9.02 -6 8 C-4.78515625 5.95703125 -4.78515625 5.95703125 -3.0625 3.8125 C-2.49660156 3.09707031 -1.93070313 2.38164062 -1.34765625 1.64453125 C-0.90292969 1.10183594 -0.45820312 0.55914062 0 0 Z " fill="#236129" transform="translate(519,481)"/>
<path d="M0 0 C0.33 0 0.66 0 1 0 C1 1.65 1 3.3 1 5 C-1.31 6.32 -3.62 7.64 -6 9 C-4.47300326 5.56425733 -2.44973747 2.84485642 0 0 Z " fill="#286A32" transform="translate(296,192)"/>
<path d="M0 0 C0.99 0.33 1.98 0.66 3 1 C2.07161713 2.31896465 1.13194268 3.62998689 0.1875 4.9375 C-0.59560547 6.03384766 -0.59560547 6.03384766 -1.39453125 7.15234375 C-3 9 -3 9 -6 10 C-5.49477778 5.62140745 -2.82172778 3.18348776 0 0 Z " fill="#1A5A23" transform="translate(303,184)"/>
<path d="M0 0 C0.33 0 0.66 0 1 0 C0.88557539 1.60495567 0.75805306 3.20898119 0.625 4.8125 C0.55539062 5.70582031 0.48578125 6.59914063 0.4140625 7.51953125 C0 10 0 10 -2 13 C-2.05447047 11.58376784 -2.09300508 10.16691809 -2.125 8.75 C-2.14820313 7.96109375 -2.17140625 7.1721875 -2.1953125 6.359375 C-1.9828378 3.79268059 -1.28654105 2.2083933 0 0 Z " fill="#16551E" transform="translate(469,592)"/>
<path d="M0 0 C0.66 0.33 1.32 0.66 2 1 C0.02 3.97 -1.96 6.94 -4 10 C-5 6 -5 6 -4.00390625 4.296875 C-2.66927083 2.86458333 -1.33463542 1.43229167 0 0 Z " fill="#1E5C25" transform="translate(511,493)"/>
<path d="M0 0 C0.99 0.66 1.98 1.32 3 2 C2.34 4.31 1.68 6.62 1 9 C0.01 9 -0.98 9 -2 9 C-2.33 8.34 -2.66 7.68 -3 7 C-2.06421005 4.64018187 -1.06652192 2.30368736 0 0 Z " fill="#28753B" transform="translate(420,363)"/>
<path d="M0 0 C1.77155654 0.11429397 3.54226229 0.24183037 5.3125 0.375 C6.79169922 0.47941406 6.79169922 0.47941406 8.30078125 0.5859375 C11 1 11 1 14 3 C4.58997722 3.3690205 4.58997722 3.3690205 0 1 C0 0.67 0 0.34 0 0 Z " fill="#165A20" transform="translate(496,179)"/>
<path d="M0 0 C0.99 0.33 1.98 0.66 3 1 C0.36 2.98 -2.28 4.96 -5 7 C-5.66 6.67 -6.32 6.34 -7 6 C-2.25 1.125 -2.25 1.125 0 0 Z " fill="#1B5C24" transform="translate(344,150)"/>
<path d="M0 0 C2.50037734 2.17424117 3.43628586 3.73045798 4 7 C2.35 7 0.7 7 -1 7 C-1.33 6.34 -1.66 5.68 -2 5 C-1.0625 2.375 -1.0625 2.375 0 0 Z " fill="#276931" transform="translate(586,241)"/>
<path d="M0 0 C0.66 0 1.32 0 2 0 C0.4722133 3.43752007 -1.50181056 6.18953688 -4 9 C-4.66 9 -5.32 9 -6 9 C-4.4722133 5.56247993 -2.49818944 2.81046312 0 0 Z " fill="#1E6027" transform="translate(410,200)"/>
<path d="M0 0 C0 4.38968456 -2.12805101 5.76905739 -5 9 C-5.33 8.01 -5.66 7.02 -6 6 C-2.83636364 1.41818182 -2.83636364 1.41818182 0 0 Z " fill="#1C5B23" transform="translate(536,460)"/>
<path d="M0 0 C0.99 0.33 1.98 0.66 3 1 C2.45276317 4.37462715 1.9451 6.08235 0 9 C-0.66 8.67 -1.32 8.34 -2 8 C-1.47731534 5.23723823 -0.89130413 2.6739124 0 0 Z " fill="#2C763E" transform="translate(744,368)"/>
<path d="M0 0 C0.99 0.33 1.98 0.66 3 1 C2 4 2 4 -0.0625 5.1875 C-0.701875 5.455625 -1.34125 5.72375 -2 6 C-2.99 5.01 -3.98 4.02 -5 3 C-2 1 -2 1 0 0 Z " fill="#29753A" transform="translate(402,122)"/>
<path d="M0 0 C0.66 0.66 1.32 1.32 2 2 C0.02 4.64 -1.96 7.28 -4 10 C-4.33 9.01 -4.66 8.02 -5 7 C-4.00390625 5.17578125 -4.00390625 5.17578125 -2.5625 3.3125 C-2.08941406 2.68988281 -1.61632812 2.06726563 -1.12890625 1.42578125 C-0.75636719 0.95527344 -0.38382813 0.48476563 0 0 Z " fill="#24632C" transform="translate(707,437)"/>
<path d="M0 0 C0.66 0 1.32 0 2 0 C4.1875 2.8125 4.1875 2.8125 6 6 C5.67 6.99 5.34 7.98 5 9 C0 3.375 0 3.375 0 0 Z " fill="#25642E" transform="translate(274,371)"/>
<path d="M0 0 C0.33 0 0.66 0 1 0 C1.125 6.625 1.125 6.625 0 10 C-0.99 10.33 -1.98 10.66 -3 11 C-2.01 7.37 -1.02 3.74 0 0 Z " fill="#307039" transform="translate(596,357)"/>
<path d="M0 0 C0.66 0 1.32 0 2 0 C1.67 2.31 1.34 4.62 1 7 C0.01 7.33 -0.98 7.66 -2 8 C-1.125 2.25 -1.125 2.25 0 0 Z " fill="#20642D" transform="translate(270,231)"/>
<path d="M0 0 C2.91517292 1.07401108 4.77810176 1.77810176 7 4 C6.34 4 5.68 4 5 4 C4.67 4.66 4.34 5.32 4 6 C4 5.34 4 4.68 4 4 C1.03 3.505 1.03 3.505 -2 3 C-1.34 2.01 -0.68 1.02 0 0 Z " fill="#2A7239" transform="translate(644,139)"/>
<path d="M0 0 C0.33 0.99 0.66 1.98 1 3 C-0.9375 6.1875 -0.9375 6.1875 -3 9 C-3.99 8.67 -4.98 8.34 -6 8 C-4.02 5.36 -2.04 2.72 0 0 Z " fill="#1E5925" transform="translate(564,879)"/>
<path d="M0 0 C0.66 0 1.32 0 2 0 C0.90931332 3.77545388 0.0916909 6.47043472 -3 9 C-2.5020163 5.26512223 -2.12508244 3.18762365 0 0 Z " fill="#1E5D26" transform="translate(499,511)"/>
<path d="M0 0 C0.99 0 1.98 0 3 0 C2.67 0.99 2.34 1.98 2 3 C1.34 3 0.68 3 0 3 C-0.33 3.99 -0.66 4.98 -1 6 C-1.99 6.33 -2.98 6.66 -4 7 C-2.92598892 4.08482708 -2.22189824 2.22189824 0 0 Z " fill="#276C32" transform="translate(567,417)"/>
<path d="M0 0 C3.53586014 3.17320782 5.58578031 5.16743695 6 10 C5.34 10 4.68 10 4 10 C0 3.375 0 3.375 0 0 Z " fill="#276931" transform="translate(577,228)"/>
<path d="M0 0 C3.40424844 1.13474948 4.21653709 1.96811304 6 5 C5.67 5.99 5.34 6.98 5 8 C0 2.25 0 2.25 0 0 Z " fill="#26662F" transform="translate(569,219)"/>
<path d="M0 0 C-0.99 0.33 -1.98 0.66 -3 1 C-3 1.66 -3 2.32 -3 3 C-4.9375 2.625 -4.9375 2.625 -7 2 C-7.33 1.34 -7.66 0.68 -8 0 C-4.71023192 -1.09658936 -3.28696233 -0.79953138 0 0 Z " fill="#236C34" transform="translate(417,120)"/>
<path d="M0 0 C0.33 0.99 0.66 1.98 1 3 C1.66 3 2.32 3 3 3 C3.625 5.3125 3.625 5.3125 4 8 C3.01 9.485 3.01 9.485 2 11 C0.80712589 7.12315913 0 4.08378077 0 0 Z " fill="#36703D" transform="translate(418,851)"/>
<path d="M0 0 C0.66 0 1.32 0 2 0 C1.46930939 3.82097239 0.50298434 6.06171403 -2 9 C-3 6 -3 6 -1.5625 2.8125 C-1.046875 1.884375 -0.53125 0.95625 0 0 Z " fill="#276931" transform="translate(742,377)"/>
<path d="M0 0 C1.258125 0.12375 2.51625 0.2475 3.8125 0.375 C4.87404297 0.47941406 4.87404297 0.47941406 5.95703125 0.5859375 C8 1 8 1 11 3 C4.6 3.36923077 4.6 3.36923077 1.5625 1.5 C1.046875 1.005 0.53125 0.51 0 0 Z " fill="#25652E" transform="translate(602,123)"/>
<path d="M0 0 C0.99 0.33 1.98 0.66 3 1 C3.33 1.99 3.66 2.98 4 4 C2.35 3.67 0.7 3.34 -1 3 C-1.33 3.66 -1.66 4.32 -2 5 C-2.66 5 -3.32 5 -4 5 C-2.25 1.125 -2.25 1.125 0 0 Z " fill="#357440" transform="translate(460,907)"/>
<path d="M0 0 C0.79921875 0.20367188 1.5984375 0.40734375 2.421875 0.6171875 C3.02515625 0.78476562 3.6284375 0.95234375 4.25 1.125 C4.25 1.455 4.25 1.785 4.25 2.125 C-0.26617599 2.20154536 -4.34085217 2.22728696 -8.75 1.125 C-5.45750312 -0.91393155 -3.7130065 -0.98285466 0 0 Z " fill="#37763E" transform="translate(482.75,698.875)"/>
<path d="M0 0 C1.5 1 1.5 1 3 3 C3.27345479 5.71846235 3.13491285 8.25677199 3 11 C0.87953208 7.46588679 0.46800711 4.05606165 0 0 Z " fill="#13551D" transform="translate(748,260)"/>
<path d="M0 0 C6.52307692 -0.36923077 6.52307692 -0.36923077 8.9375 1.5 C9.288125 1.995 9.63875 2.49 10 3 C2.25 2.25 2.25 2.25 0 0 Z " fill="#175C21" transform="translate(580,117)"/>
<path d="M0 0 C1.65 0 3.3 0 5 0 C5 0.66 5 1.32 5 2 C3.35 1.67 1.7 1.34 0 1 C0 0.67 0 0.34 0 0 Z " fill="#377943" transform="translate(481,918)"/>
<path d="M0 0 C1.98 0 3.96 0 6 0 C2.25 2 2.25 2 0 2 C0 1.34 0 0.68 0 0 Z " fill="#387E46" transform="translate(480,702)"/>
<path d="M0 0 C2.31 0 4.62 0 7 0 C7 0.33 7 0.66 7 1 C4.69 1 2.38 1 0 1 C0 0.67 0 0.34 0 0 Z " fill="#377C45" transform="translate(491,703)"/>
<path d="M0 0 C0.66 1.32 1.32 2.64 2 4 C1.01 3.67 0.02 3.34 -1 3 C-0.67 2.01 -0.34 1.02 0 0 Z " fill="#3F7E4A" transform="translate(257,341)"/>
<path d="M0 0 C1.98 0 3.96 0 6 0 C6 0.33 6 0.66 6 1 C4.02 1 2.04 1 0 1 C0 0.67 0 0.34 0 0 Z " fill="#377F46" transform="translate(483,752)"/>
<path d="M0 0 C0.66 1.32 1.32 2.64 2 4 C1.34 4 0.68 4 0 4 C0 2.68 0 1.36 0 0 Z " fill="#357E45" transform="translate(595,268)"/>
<path d="M0 0 C1.65 0 3.3 0 5 0 C5 0.33 5 0.66 5 1 C3.35 1 1.7 1 0 1 C0 0.67 0 0.34 0 0 Z " fill="#377943" transform="translate(492,919)"/>
<path d="M0 0 C1.485 0.99 1.485 0.99 3 2 C1.68 1.67 0.36 1.34 -1 1 C-0.67 0.67 -0.34 0.34 0 0 Z " fill="#3B7B48" transform="translate(305,404)"/>
<path d="M0 0 C0.33 1.32 0.66 2.64 1 4 C0.34 3.34 -0.32 2.68 -1 2 C-0.67 1.34 -0.34 0.68 0 0 Z " fill="#347A41" transform="translate(593,261)"/>
<path d="M0 0 C4 1 4 1 4 1 Z " fill="#357742" transform="translate(507,918)"/>
<path d="M0 0 C1 4 1 4 1 4 Z " fill="#3F7C48" transform="translate(416,816)"/>
<path d="M0 0 C1 4 1 4 1 4 Z " fill="#3B7D48" transform="translate(464,600)"/>
<path d="M0 0 C4 1 4 1 4 1 Z " fill="#347C43" transform="translate(497,182)"/>
<path d="M0 0 C0.66 0 1.32 0 2 0 C1.67 0.66 1.34 1.32 1 2 C0.67 1.34 0.34 0.68 0 0 Z " fill="#377944" transform="translate(514,917)"/>
<path d="M0 0 C0.33 0.66 0.66 1.32 1 2 C0.34 1.67 -0.32 1.34 -1 1 C-0.67 0.67 -0.34 0.34 0 0 Z " fill="#3B7844" transform="translate(425,876)"/>
<path d="" fill="#3D7B47" transform="translate(0,0)"/>
<path d="M0 0 C0.66 0 1.32 0 2 0 C1.67 0.66 1.34 1.32 1 2 C0.67 1.34 0.34 0.68 0 0 Z " fill="#40804D" transform="translate(416,811)"/>
<path d="M0 0 C3 1 3 1 3 1 Z " fill="#377D44" transform="translate(549,768)"/>
<path d="M0 0 C0.66 0 1.32 0 2 0 C1.67 0.66 1.34 1.32 1 2 C0.67 1.34 0.34 0.68 0 0 Z " fill="#397F46" transform="translate(507,702)"/>
<path d="" fill="#3C7C47" transform="translate(0,0)"/>
<path d="M0 0 C0.99 0.495 0.99 0.495 2 1 C1.01 1.495 1.01 1.495 0 2 C0 1.34 0 0.68 0 0 Z " fill="#387B44" transform="translate(528,464)"/>
<path d="M0 0 C3 1 3 1 3 1 Z " fill="#347C43" transform="translate(539,449)"/>
<path d="M0 0 C3 1 3 1 3 1 Z " fill="#3B7C46" transform="translate(363,415)"/>
<path d="M0 0 C0.66 0 1.32 0 2 0 C1.67 0.66 1.34 1.32 1 2 C0.67 1.34 0.34 0.68 0 0 Z " fill="#3B7A44" transform="translate(331,414)"/>
<path d="M0 0 C3 1 3 1 3 1 Z " fill="#337A41" transform="translate(371,413)"/>
<path d="" fill="#387F46" transform="translate(0,0)"/>
<path d="" fill="#367F45" transform="translate(0,0)"/>
<path d="M0 0 C0.66 0.66 1.32 1.32 2 2 C1.34 2 0.68 2 0 2 C0 1.34 0 0.68 0 0 Z " fill="#327C43" transform="translate(539,197)"/>
<path d="M0 0 C0.99 0.495 0.99 0.495 2 1 C1.01 1.495 1.01 1.495 0 2 C0 1.34 0 0.68 0 0 Z " fill="#337C43" transform="translate(522,189)"/>
<path d="M0 0 C3 1 3 1 3 1 Z " fill="#358146" transform="translate(488,181)"/>
<path d="M0 0 C3 1 3 1 3 1 Z " fill="#3A8047" transform="translate(336,152)"/>
<path d="M0 0 C0.33 0.66 0.66 1.32 1 2 C0.34 1.67 -0.32 1.34 -1 1 C-0.67 0.67 -0.34 0.34 0 0 Z " fill="#397F46" transform="translate(614,123)"/>
<path d="M0 0 C3 1 3 1 3 1 Z " fill="#397C44" transform="translate(570,112)"/>
<path d="M0 0 C3 1 3 1 3 1 Z " fill="#3D834C" transform="translate(432,112)"/>
<path d="M0 0 C2 1 2 1 2 1 Z " fill="#387C46" transform="translate(500,919)"/>
<path d="" fill="#397945" transform="translate(0,0)"/>
<path d="" fill="#3A7A47" transform="translate(0,0)"/>
<path d="" fill="#3B7945" transform="translate(0,0)"/>
<path d="" fill="#3C7845" transform="translate(0,0)"/>
<path d="M0 0 C2 1 2 1 2 1 Z " fill="#387943" transform="translate(533,760)"/>
<path d="M0 0 C2 1 2 1 2 1 Z " fill="#387E45" transform="translate(507,752)"/>
<path d="M0 0 C2 1 2 1 2 1 Z " fill="#397C46" transform="translate(500,703)"/>
<path d="M0 0 C2 1 2 1 2 1 Z " fill="#3B8049" transform="translate(474,701)"/>
<path d="" fill="#3E7D48" transform="translate(0,0)"/>
<path d="" fill="#3E8047" transform="translate(0,0)"/>
<path d="" fill="#387D46" transform="translate(0,0)"/>
<path d="" fill="#367842" transform="translate(0,0)"/>
<path d="M0 0 C2 1 2 1 2 1 Z " fill="#377F46" transform="translate(499,505)"/>
<path d="" fill="#3B7C46" transform="translate(0,0)"/>
<path d="M0 0 C2 1 2 1 2 1 Z " fill="#367A44" transform="translate(368,414)"/>
<path d="M0 0 C2 1 2 1 2 1 Z " fill="#3F7A49" transform="translate(297,399)"/>
<path d="" fill="#347C41" transform="translate(0,0)"/>
<path d="" fill="#347B43" transform="translate(0,0)"/>
<path d="" fill="#347C41" transform="translate(0,0)"/>
<path d="" fill="#367B43" transform="translate(0,0)"/>
<path d="" fill="#3B7B46" transform="translate(0,0)"/>
<path d="" fill="#377F46" transform="translate(0,0)"/>
<path d="M0 0 C2 1 2 1 2 1 Z " fill="#3D7D49" transform="translate(264,361)"/>
<path d="" fill="#3C7D4A" transform="translate(0,0)"/>
<path d="" fill="#40804C" transform="translate(0,0)"/>
<path d="" fill="#427D4A" transform="translate(0,0)"/>
<path d="" fill="#387D45" transform="translate(0,0)"/>
<path d="" fill="#40804B" transform="translate(0,0)"/>
<path d="" fill="#358045" transform="translate(0,0)"/>
<path d="" fill="#3F814B" transform="translate(0,0)"/>
<path d="" fill="#367F46" transform="translate(0,0)"/>
<path d="" fill="#3D804B" transform="translate(0,0)"/>
<path d="" fill="#347A41" transform="translate(0,0)"/>
<path d="" fill="#367D46" transform="translate(0,0)"/>
<path d="" fill="#387B42" transform="translate(0,0)"/>
<path d="" fill="#40834B" transform="translate(0,0)"/>
<path d="M0 0 C2 1 2 1 2 1 Z " fill="#3F834B" transform="translate(264,237)"/>
<path d="M0 0 C2 1 2 1 2 1 Z " fill="#347D42" transform="translate(577,235)"/>
<path d="" fill="#377E45" transform="translate(0,0)"/>
<path d="" fill="#397B44" transform="translate(0,0)"/>
<path d="M0 0 C2 1 2 1 2 1 Z " fill="#3E834C" transform="translate(272,221)"/>
<path d="" fill="#347D43" transform="translate(0,0)"/>
<path d="M0 0 C2 1 2 1 2 1 Z " fill="#347E43" transform="translate(434,188)"/>
<path d="" fill="#3B8046" transform="translate(0,0)"/>
<path d="" fill="#398046" transform="translate(0,0)"/>
<path d="M0 0 C2 1 2 1 2 1 Z " fill="#3B7F47" transform="translate(609,122)"/>
<path d="M0 0 C2 1 2 1 2 1 Z " fill="#3A8046" transform="translate(585,115)"/>
<path d="" fill="#9AA291" transform="translate(0,0)"/>
<path d="" fill="#397D47" transform="translate(0,0)"/>
<path d="" fill="#387D46" transform="translate(0,0)"/>
<path d="" fill="#397A47" transform="translate(0,0)"/>
<path d="" fill="#377744" transform="translate(0,0)"/>
<path d="" fill="#387A46" transform="translate(0,0)"/>
<path d="" fill="#347540" transform="translate(0,0)"/>
<path d="" fill="#3B7C47" transform="translate(0,0)"/>
<path d="" fill="#3A7B45" transform="translate(0,0)"/>
<path d="" fill="#3C7B48" transform="translate(0,0)"/>
<path d="" fill="#357441" transform="translate(0,0)"/>
<path d="" fill="#367B44" transform="translate(0,0)"/>
<path d="" fill="#377745" transform="translate(0,0)"/>
<path d="" fill="#3A7445" transform="translate(0,0)"/>
<path d="" fill="#3B7A45" transform="translate(0,0)"/>
<path d="" fill="#3D7743" transform="translate(0,0)"/>
<path d="" fill="#3D7A45" transform="translate(0,0)"/>
<path d="" fill="#3B7B47" transform="translate(0,0)"/>
<path d="" fill="#3B7C46" transform="translate(0,0)"/>
<path d="" fill="#3D7D49" transform="translate(0,0)"/>
<path d="" fill="#407C4A" transform="translate(0,0)"/>
<path d="" fill="#3C7C48" transform="translate(0,0)"/>
<path d="" fill="#40804A" transform="translate(0,0)"/>
<path d="" fill="#417F4B" transform="translate(0,0)"/>
<path d="" fill="#3F7D4B" transform="translate(0,0)"/>
<path d="" fill="#3D7A49" transform="translate(0,0)"/>
<path d="" fill="#397A48" transform="translate(0,0)"/>
<path d="" fill="#3A7A46" transform="translate(0,0)"/>
<path d="" fill="#3C7D47" transform="translate(0,0)"/>
<path d="" fill="#357C46" transform="translate(0,0)"/>
<path d="" fill="#3B7D48" transform="translate(0,0)"/>
<path d="" fill="#3A7E48" transform="translate(0,0)"/>
<path d="" fill="#3A7D48" transform="translate(0,0)"/>
<path d="" fill="#3D8049" transform="translate(0,0)"/>
<path d="" fill="#3A7A44" transform="translate(0,0)"/>
<path d="" fill="#397C46" transform="translate(0,0)"/>
<path d="" fill="#3A7C48" transform="translate(0,0)"/>
<path d="" fill="#397D46" transform="translate(0,0)"/>
<path d="" fill="#397B44" transform="translate(0,0)"/>
<path d="" fill="#3B8047" transform="translate(0,0)"/>
<path d="" fill="#3C8249" transform="translate(0,0)"/>
<path d="" fill="#3B834A" transform="translate(0,0)"/>
<path d="" fill="#397F48" transform="translate(0,0)"/>
<path d="" fill="#398048" transform="translate(0,0)"/>
<path d="" fill="#3F7C4A" transform="translate(0,0)"/>
<path d="" fill="#408148" transform="translate(0,0)"/>
<path d="" fill="#377947" transform="translate(0,0)"/>
<path d="" fill="#3C8346" transform="translate(0,0)"/>
<path d="" fill="#3B7F47" transform="translate(0,0)"/>
<path d="" fill="#3B7F48" transform="translate(0,0)"/>
<path d="" fill="#397D47" transform="translate(0,0)"/>
<path d="" fill="#377C48" transform="translate(0,0)"/>
<path d="" fill="#387B45" transform="translate(0,0)"/>
<path d="" fill="#377843" transform="translate(0,0)"/>
<path d="" fill="#387946" transform="translate(0,0)"/>
<path d="" fill="#387A47" transform="translate(0,0)"/>
<path d="" fill="#377845" transform="translate(0,0)"/>
<path d="" fill="#347644" transform="translate(0,0)"/>
<path d="" fill="#3A8049" transform="translate(0,0)"/>
<path d="" fill="#387D44" transform="translate(0,0)"/>
<path d="" fill="#367B42" transform="translate(0,0)"/>
<path d="" fill="#3A7645" transform="translate(0,0)"/>
<path d="" fill="#367B45" transform="translate(0,0)"/>
<path d="" fill="#367843" transform="translate(0,0)"/>
<path d="" fill="#398047" transform="translate(0,0)"/>
<path d="" fill="#397943" transform="translate(0,0)"/>
<path d="" fill="#397B44" transform="translate(0,0)"/>
<path d="" fill="#3A8049" transform="translate(0,0)"/>
<path d="" fill="#387E46" transform="translate(0,0)"/>
<path d="" fill="#397E49" transform="translate(0,0)"/>
<path d="" fill="#3E7846" transform="translate(0,0)"/>
<path d="" fill="#387942" transform="translate(0,0)"/>
<path d="" fill="#387E46" transform="translate(0,0)"/>
<path d="" fill="#377F47" transform="translate(0,0)"/>
<path d="" fill="#3C7C44" transform="translate(0,0)"/>
<path d="" fill="#397D47" transform="translate(0,0)"/>
<path d="" fill="#387444" transform="translate(0,0)"/>
<path d="" fill="#337E44" transform="translate(0,0)"/>
<path d="" fill="#347D44" transform="translate(0,0)"/>
<path d="" fill="#3E7C46" transform="translate(0,0)"/>
<path d="" fill="#387742" transform="translate(0,0)"/>
<path d="" fill="#3C7A46" transform="translate(0,0)"/>
<path d="" fill="#3C7B45" transform="translate(0,0)"/>
<path d="" fill="#397E47" transform="translate(0,0)"/>
<path d="" fill="#3D7C47" transform="translate(0,0)"/>
<path d="" fill="#3C7D47" transform="translate(0,0)"/>
<path d="" fill="#3A7844" transform="translate(0,0)"/>
<path d="" fill="#3C7A46" transform="translate(0,0)"/>
<path d="" fill="#3A7D46" transform="translate(0,0)"/>
<path d="" fill="#377A42" transform="translate(0,0)"/>
<path d="" fill="#377E42" transform="translate(0,0)"/>
<path d="" fill="#3D7247" transform="translate(0,0)"/>
<path d="" fill="#367E46" transform="translate(0,0)"/>
<path d="" fill="#347942" transform="translate(0,0)"/>
<path d="" fill="#3A7948" transform="translate(0,0)"/>
<path d="" fill="#377B44" transform="translate(0,0)"/>
<path d="" fill="#397C46" transform="translate(0,0)"/>
<path d="" fill="#397D46" transform="translate(0,0)"/>
<path d="" fill="#3B7E49" transform="translate(0,0)"/>
<path d="" fill="#367D46" transform="translate(0,0)"/>
<path d="" fill="#3B7B46" transform="translate(0,0)"/>
<path d="" fill="#3C7B45" transform="translate(0,0)"/>
<path d="" fill="#3B7D46" transform="translate(0,0)"/>
<path d="" fill="#3B7C4A" transform="translate(0,0)"/>
<path d="" fill="#397A44" transform="translate(0,0)"/>
<path d="" fill="#3B7D45" transform="translate(0,0)"/>
<path d="" fill="#387D45" transform="translate(0,0)"/>
<path d="" fill="#3A7A45" transform="translate(0,0)"/>
<path d="" fill="#397A44" transform="translate(0,0)"/>
<path d="" fill="#3D7C4C" transform="translate(0,0)"/>
<path d="" fill="#3C7A49" transform="translate(0,0)"/>
<path d="" fill="#3D7644" transform="translate(0,0)"/>
<path d="" fill="#407B49" transform="translate(0,0)"/>
<path d="" fill="#387C43" transform="translate(0,0)"/>
<path d="" fill="#357E44" transform="translate(0,0)"/>
<path d="" fill="#397E45" transform="translate(0,0)"/>
<path d="" fill="#357C44" transform="translate(0,0)"/>
<path d="" fill="#3C7D4A" transform="translate(0,0)"/>
<path d="" fill="#3C7C47" transform="translate(0,0)"/>
<path d="" fill="#367B41" transform="translate(0,0)"/>
<path d="" fill="#357D44" transform="translate(0,0)"/>
<path d="" fill="#417B48" transform="translate(0,0)"/>
<path d="" fill="#3F7B49" transform="translate(0,0)"/>
<path d="" fill="#407D4A" transform="translate(0,0)"/>
<path d="" fill="#347743" transform="translate(0,0)"/>
<path d="" fill="#3F7E4B" transform="translate(0,0)"/>
<path d="" fill="#3A7C46" transform="translate(0,0)"/>
<path d="" fill="#378044" transform="translate(0,0)"/>
<path d="" fill="#337F44" transform="translate(0,0)"/>
<path d="" fill="#327A43" transform="translate(0,0)"/>
<path d="" fill="#377D47" transform="translate(0,0)"/>
<path d="" fill="#397D46" transform="translate(0,0)"/>
<path d="" fill="#3F7F4A" transform="translate(0,0)"/>
<path d="" fill="#377F44" transform="translate(0,0)"/>
<path d="" fill="#367D44" transform="translate(0,0)"/>
<path d="" fill="#397B45" transform="translate(0,0)"/>
<path d="" fill="#41834A" transform="translate(0,0)"/>
<path d="" fill="#367F44" transform="translate(0,0)"/>
<path d="" fill="#387E46" transform="translate(0,0)"/>
<path d="" fill="#357D44" transform="translate(0,0)"/>
<path d="" fill="#40824C" transform="translate(0,0)"/>
<path d="" fill="#367E46" transform="translate(0,0)"/>
<path d="" fill="#397B47" transform="translate(0,0)"/>
<path d="" fill="#387744" transform="translate(0,0)"/>
<path d="" fill="#387945" transform="translate(0,0)"/>
<path d="" fill="#337E44" transform="translate(0,0)"/>
<path d="" fill="#337D46" transform="translate(0,0)"/>
<path d="" fill="#357D44" transform="translate(0,0)"/>
<path d="" fill="#337F43" transform="translate(0,0)"/>
<path d="" fill="#44824C" transform="translate(0,0)"/>
<path d="" fill="#3D7C4A" transform="translate(0,0)"/>
<path d="" fill="#3E844D" transform="translate(0,0)"/>
<path d="" fill="#3C7F49" transform="translate(0,0)"/>
<path d="" fill="#3E844E" transform="translate(0,0)"/>
<path d="" fill="#42844F" transform="translate(0,0)"/>
<path d="" fill="#3F7E4C" transform="translate(0,0)"/>
<path d="" fill="#347C44" transform="translate(0,0)"/>
<path d="" fill="#397C49" transform="translate(0,0)"/>
<path d="" fill="#367942" transform="translate(0,0)"/>
<path d="" fill="#407E47" transform="translate(0,0)"/>
<path d="" fill="#3C7D4B" transform="translate(0,0)"/>
<path d="" fill="#367B43" transform="translate(0,0)"/>
<path d="" fill="#3C7B47" transform="translate(0,0)"/>
<path d="" fill="#40804B" transform="translate(0,0)"/>
<path d="" fill="#367E44" transform="translate(0,0)"/>
<path d="" fill="#3C7F49" transform="translate(0,0)"/>
<path d="" fill="#357742" transform="translate(0,0)"/>
<path d="" fill="#367A44" transform="translate(0,0)"/>
<path d="" fill="#3F814F" transform="translate(0,0)"/>
<path d="" fill="#387B42" transform="translate(0,0)"/>
<path d="" fill="#3B7B47" transform="translate(0,0)"/>
<path d="" fill="#3D814B" transform="translate(0,0)"/>
<path d="" fill="#3D8049" transform="translate(0,0)"/>
<path d="" fill="#368046" transform="translate(0,0)"/>
<path d="" fill="#3C7F49" transform="translate(0,0)"/>
<path d="" fill="#3E7D49" transform="translate(0,0)"/>
<path d="" fill="#417A49" transform="translate(0,0)"/>
<path d="" fill="#327841" transform="translate(0,0)"/>
<path d="" fill="#347D44" transform="translate(0,0)"/>
<path d="" fill="#347A41" transform="translate(0,0)"/>
<path d="" fill="#317A42" transform="translate(0,0)"/>
<path d="" fill="#337C42" transform="translate(0,0)"/>
<path d="" fill="#387E47" transform="translate(0,0)"/>
<path d="" fill="#3D804A" transform="translate(0,0)"/>
<path d="" fill="#3E844A" transform="translate(0,0)"/>
<path d="" fill="#3F8249" transform="translate(0,0)"/>
<path d="" fill="#367A41" transform="translate(0,0)"/>
<path d="" fill="#377F49" transform="translate(0,0)"/>
<path d="" fill="#3A7F46" transform="translate(0,0)"/>
<path d="" fill="#367D45" transform="translate(0,0)"/>
<path d="" fill="#337D43" transform="translate(0,0)"/>
<path d="" fill="#367F44" transform="translate(0,0)"/>
<path d="" fill="#337D43" transform="translate(0,0)"/>
<path d="" fill="#358044" transform="translate(0,0)"/>
<path d="" fill="#338044" transform="translate(0,0)"/>
<path d="" fill="#347E44" transform="translate(0,0)"/>
<path d="" fill="#3A8148" transform="translate(0,0)"/>
<path d="" fill="#3C804A" transform="translate(0,0)"/>
<path d="" fill="#3B814A" transform="translate(0,0)"/>
<path d="" fill="#3A7F48" transform="translate(0,0)"/>
<path d="" fill="#3A7F48" transform="translate(0,0)"/>
<path d="" fill="#3C854C" transform="translate(0,0)"/>
<path d="" fill="#367B45" transform="translate(0,0)"/>
<path d="" fill="#377C44" transform="translate(0,0)"/>
<path d="" fill="#3B7E47" transform="translate(0,0)"/>
<path d="" fill="#377A43" transform="translate(0,0)"/>
<path d="" fill="#397F49" transform="translate(0,0)"/>
<path d="" fill="#3B834A" transform="translate(0,0)"/>
<path d="" fill="#398045" transform="translate(0,0)"/>
<path d="" fill="#378247" transform="translate(0,0)"/>
<path d="" fill="#378048" transform="translate(0,0)"/>
<path d="" fill="#387D43" transform="translate(0,0)"/>
<path d="" fill="#388149" transform="translate(0,0)"/>
<path d="" fill="#39844A" transform="translate(0,0)"/>
<path d="" fill="#3B8148" transform="translate(0,0)"/>
<path d="" fill="#3D844A" transform="translate(0,0)"/>
<path d="" fill="#3B8049" transform="translate(0,0)"/>
<path d="" fill="#388249" transform="translate(0,0)"/>
<path d="" fill="#397F46" transform="translate(0,0)"/>
<path d="" fill="#367C44" transform="translate(0,0)"/>
<path d="" fill="#3C8549" transform="translate(0,0)"/>
<path d="" fill="#387E45" transform="translate(0,0)"/>
<path d="" fill="#3C854A" transform="translate(0,0)"/>
<path d="" fill="#3E8149" transform="translate(0,0)"/>
<path d="" fill="#388148" transform="translate(0,0)"/>
<path d="" fill="#358045" transform="translate(0,0)"/>
<path d="" fill="#3A7E45" transform="translate(0,0)"/>
<path d="" fill="#3A8248" transform="translate(0,0)"/>
<path d="" fill="#3A844A" transform="translate(0,0)"/>
<path d="" fill="#3A8148" transform="translate(0,0)"/>
<path d="" fill="#397E44" transform="translate(0,0)"/>
<path d="" fill="#39824A" transform="translate(0,0)"/>
<path d="" fill="#398148" transform="translate(0,0)"/>
<path d="" fill="#3B8249" transform="translate(0,0)"/>
<path d="" fill="#3D8147" transform="translate(0,0)"/>
<path d="" fill="#3A8047" transform="translate(0,0)"/>
<path d="" fill="#3C8249" transform="translate(0,0)"/>
</svg>
