<svg width="512" height="512" data-colorable="true" viewBox="0 0 512 512" xmlns="http://www.w3.org/2000/svg">
    <path d="M158.463 134.714c-.327.547-.692.966-1.092 1.257-.365.255-.82.383-1.367.383-.619 0-1.347-.31-2.185-.929-.838-.62-1.895-1.294-3.17-2.022-1.238-.765-2.75-1.457-4.535-2.077-1.748-.619-3.879-.929-6.393-.929-2.368 0-4.463.328-6.284.984-1.785.619-3.297 1.475-4.535 2.568a10.741 10.741 0 0 0-2.732 3.88c-.62 1.457-.929 3.042-.929 4.754 0 2.185.528 4.007 1.584 5.464 1.093 1.421 2.514 2.641 4.262 3.661 1.785 1.02 3.789 1.913 6.011 2.678 2.259.728 4.554 1.493 6.885 2.295a71.097 71.097 0 0 1 6.885 2.732c2.259.983 4.262 2.24 6.011 3.77 1.785 1.53 3.205 3.406 4.262 5.628 1.093 2.222 1.639 4.955 1.639 8.197 0 3.424-.583 6.648-1.748 9.671a22.1 22.1 0 0 1-5.137 7.814c-2.222 2.222-4.972 3.971-8.251 5.246-3.242 1.275-6.939 1.913-11.092 1.913-5.1 0-9.727-.911-13.88-2.733-4.152-1.857-7.704-4.353-10.655-7.486l3.06-5.027a3.812 3.812 0 0 1 1.038-.983 2.508 2.508 0 0 1 1.421-.438c.474 0 1.002.201 1.585.602a21.35 21.35 0 0 1 2.076 1.42 85.473 85.473 0 0 0 2.623 1.913 22.244 22.244 0 0 0 3.333 1.912c1.275.583 2.714 1.075 4.317 1.476 1.603.364 3.406.546 5.41.546 2.513 0 4.753-.346 6.721-1.038 1.967-.692 3.624-1.658 4.972-2.896a12.764 12.764 0 0 0 3.169-4.536c.729-1.748 1.093-3.697 1.093-5.846 0-2.368-.546-4.299-1.639-5.792-1.057-1.53-2.459-2.805-4.208-3.825-1.748-1.02-3.752-1.877-6.01-2.569a798.545 798.545 0 0 0-6.885-2.185 78.693 78.693 0 0 1-6.885-2.623c-2.259-.984-4.262-2.259-6.011-3.825-1.748-1.567-3.169-3.516-4.262-5.847-1.056-2.368-1.585-5.282-1.585-8.743 0-2.768.529-5.446 1.585-8.032a21.048 21.048 0 0 1 4.699-6.885c2.077-2.004 4.608-3.607 7.596-4.809 3.023-1.202 6.484-1.803 10.382-1.803 4.371 0 8.342.692 11.912 2.076 3.606 1.385 6.775 3.388 9.508 6.011l-2.569 5.027Zm74.256 49.889c.583 0 1.093.237 1.53.71l4.208 4.536c-3.206 3.715-7.104 6.611-11.694 8.688-4.553 2.076-10.072 3.115-16.556 3.115-5.61 0-10.71-.966-15.3-2.897-4.59-1.967-8.506-4.699-11.749-8.196-3.242-3.534-5.755-7.759-7.54-12.677-1.785-4.918-2.678-10.328-2.678-16.229s.929-11.311 2.787-16.229c1.858-4.918 4.463-9.143 7.814-12.677 3.388-3.533 7.431-6.266 12.131-8.196 4.699-1.967 9.89-2.951 15.573-2.951 5.573 0 10.491.893 14.753 2.677 4.262 1.785 8.015 4.208 11.257 7.268l-3.497 4.863c-.219.364-.51.674-.875.929-.328.219-.783.328-1.366.328-.656 0-1.457-.346-2.404-1.038-.947-.729-2.186-1.53-3.716-2.405-1.53-.874-3.442-1.657-5.737-2.349-2.295-.729-5.118-1.093-8.47-1.093-4.043 0-7.741.71-11.092 2.131a24.18 24.18 0 0 0-8.689 6.065c-2.404 2.66-4.28 5.902-5.628 9.727-1.348 3.825-2.022 8.142-2.022 12.95 0 4.881.693 9.235 2.077 13.06 1.421 3.825 3.333 7.067 5.737 9.726a24.76 24.76 0 0 0 8.579 6.011c3.315 1.384 6.885 2.076 10.71 2.076 2.332 0 4.426-.127 6.284-.382 1.894-.292 3.625-.729 5.191-1.312a21.79 21.79 0 0 0 4.426-2.185 32.342 32.342 0 0 0 4.098-3.224c.62-.547 1.239-.82 1.858-.82Zm59.612-12.896-12.295-31.856a65.177 65.177 0 0 1-1.147-3.279 79.283 79.283 0 0 1-1.148-4.043c-.765 2.95-1.548 5.409-2.349 7.376l-12.295 31.802h29.234Zm22.076 29.07h-8.197c-.947 0-1.712-.237-2.295-.71a4.368 4.368 0 0 1-1.311-1.803l-7.322-18.907h-35.135l-7.323 18.907c-.218.655-.637 1.238-1.256 1.748-.62.51-1.385.765-2.295.765h-8.197l31.31-78.303h10.71l31.311 78.303Zm73.741-78.303v78.303h-5.301c-.837 0-1.548-.145-2.131-.437-.546-.291-1.092-.783-1.639-1.475l-45.299-59.014c.073.91.128 1.803.164 2.677.037.874.055 1.694.055 2.459v55.79h-9.289v-78.303h5.464c.474 0 .874.037 1.202.11.328.036.619.127.874.273.255.109.51.291.765.546.255.219.529.51.82.874l45.299 58.96c-.073-.947-.146-1.858-.219-2.732a65.235 65.235 0 0 1-.054-2.568v-55.463h9.289Zm-116.468 121.1v147.288h-19.078V286.037c0-1.572.034-3.248.102-5.025.137-1.778.274-3.59.411-5.437l-49.028 89.953c-1.709 3.35-4.342 5.026-7.898 5.026h-3.077c-3.555 0-6.154-1.676-7.795-5.026l-49.951-90.26c.411 3.829.616 7.419.616 10.769v104.825h-19.181V243.574h16.206c1.915 0 3.385.205 4.411.616 1.094.341 2.119 1.367 3.077 3.077l49.232 88.208a61.153 61.153 0 0 1 2.667 5.642 212.85 212.85 0 0 1 2.359 5.949 98.75 98.75 0 0 1 5.026-11.693l48.31-88.106c.889-1.71 1.846-2.736 2.872-3.077 1.094-.411 2.598-.616 4.513-.616h16.206Zm127.824 129.544-.103 17.744h-91.286V243.574h91.286v17.744h-69.336v46.669h55.797v17.129h-55.797v48.002h69.439ZM32 32v125.281c7.335 0 13.28-5.946 13.28-13.281V45.28H144c7.335 0 13.281-5.945 13.281-13.28H32Zm322.719 0c0 7.335 5.946 13.28 13.281 13.28h98.719V144c0 7.335 5.946 13.281 13.281 13.281V32H354.719ZM480 354.719c-7.335 0-13.281 5.946-13.281 13.281v98.719H368c-7.335 0-13.281 5.946-13.281 13.281H480V354.719ZM157.281 480c0-7.335-5.946-13.281-13.281-13.281H45.28V368c0-7.335-5.945-13.281-13.28-13.281V480h125.281Z"/>
</svg>
