<svg width="512" height="512" viewBox="0 0 512 512" fill="none" xmlns="http://www.w3.org/2000/svg">
    <path fill="#010101" d="M512 256a256 256 0 0 1-256 256A256 256 0 0 1 0 256a256 256 0 0 1 512 0z"/>
    <path fill-rule="evenodd" clip-rule="evenodd" d="M327.125 210.631a136.348 136.348 0 0 0 79.531 25.429v-57.045a80.314 80.314 0 0 1-16.697-1.749v44.9a136.363 136.363 0 0 1-79.531-25.429v116.395a105.458 105.458 0 0 1-105.486 105.429 105.031 105.031 0 0 1-58.724-17.835 105.188 105.188 0 0 0 75.42 31.716 105.458 105.458 0 0 0 105.486-105.429V210.631Zm20.608-57.557a79.502 79.502 0 0 1-20.622-46.55V99.2h-15.829a79.858 79.858 0 0 0 36.437 53.874ZM183.068 356.039a48.242 48.242 0 0 1 53.049-75.164v-58.311a106.382 106.382 0 0 0-16.697-.953v45.383a48.242 48.242 0 0 0-36.352 89.045Z" fill="#EE1D52"/>
    <path fill-rule="evenodd" clip-rule="evenodd" d="M310.485 196.736a136.363 136.363 0 0 0 79.531 25.429v-44.9a79.829 79.829 0 0 1-42.226-24.192 79.858 79.858 0 0 1-36.423-53.874h-41.571v227.812a48.242 48.242 0 0 1-86.67 29.028 48.213 48.213 0 0 1 21.717-91.307 47.95 47.95 0 0 1 14.649 2.276v-45.397a105.458 105.458 0 0 0-73.202 179.115 105.017 105.017 0 0 0 58.724 17.835 105.458 105.458 0 0 0 105.472-105.429V196.737Z" fill="#fff"/>
    <path fill-rule="evenodd" clip-rule="evenodd" d="M390.044 177.294v-12.146a79.545 79.545 0 0 1-42.212-12.06 79.758 79.758 0 0 0 42.212 24.206Zm-78.649-78.08a81.18 81.18 0 0 1-.868-6.542v-7.339h-57.401v227.826a48.242 48.242 0 0 1-69.973 42.908 48.242 48.242 0 0 0 86.67-29.028V99.214h41.572Zm-91.876 122.425v-12.942A105.458 105.458 0 0 0 99.556 313.159a105.301 105.301 0 0 0 46.763 87.609 105.458 105.458 0 0 1 73.202-179.115Z" fill="#69C9D0"/>
</svg>
