<svg width="512" height="512" viewBox="0 0 512 512" fill="none" xmlns="http://www.w3.org/2000/svg">
    <path
        d="M512 256C512 114.617 397.383 0 256 0 114.617 0 0 114.617 0 256c0 141.383 114.617 256 256 256 141.383 0 256-114.617 256-256Z"
        fill="#25B99A"/>
    <path
        d="M282.483 361.93c0-14.627-11.855-26.483-26.483-26.483s-26.483 11.855-26.483 26.483 11.855 26.483 26.483 26.483 26.483-11.856 26.483-26.483ZM256 264.828c-26.774 0-51.05 10.893-68.634 28.469l24.964 24.964c11.185-11.193 26.633-18.123 43.67-18.123 17.037 0 32.486 6.93 43.67 18.123l24.964-24.964c-17.584-17.576-41.86-28.469-68.634-28.469Z"
        fill="#fff"/>
    <path
        d="M256 194.207c-46.239 0-88.17 18.812-118.546 49.178l24.956 24.956c23.976-23.976 57.079-38.824 93.59-38.824s69.614 14.848 93.59 38.824l24.956-24.956C344.17 213.018 302.239 194.207 256 194.207Z"
        fill="#fff"/>
    <path
        d="M256 123.586c-65.713 0-125.299 26.73-168.457 69.888l24.956 24.956c36.767-36.767 87.526-59.533 143.501-59.533 55.975 0 106.734 22.766 143.501 59.533l24.956-24.956C381.299 150.316 321.713 123.586 256 123.586Z"
        fill="#fff"/>
</svg>
